<svg width="80" height="80" viewBox="0 0 80 80" fill="none" xmlns="http://www.w3.org/2000/svg">
<g clip-path="url(#clip0_3367_88429)">
<path d="M78.2906 16.1151C76.7859 9.32131 70.2 3.09787 63.3875 1.77599C59.2359 0.946307 47.6562 -0.0786929 40 0.000994646C32.3438 -0.0833804 20.7656 0.938495 16.6141 1.77131C9.80156 3.09787 3.21563 9.32131 1.71875 16.1151C0.854687 20.2401 0.0125 25.8526 0 33.5135C0.0125 41.1697 0.854687 46.7838 1.71875 50.9104C3.22344 57.7041 9.80937 63.9276 16.6219 65.2494C18.8625 65.6963 23.2703 66.2026 28.0547 66.5588C28.5964 67.4099 29.1849 68.3161 29.8203 69.2776C32.3594 73.1244 34.3016 75.8041 35.775 77.6713C38.225 80.7776 41.7906 80.7776 44.2406 77.6713C45.7141 75.8041 47.6562 73.1244 50.1953 69.2776C50.8307 68.3171 51.4193 67.4109 51.9609 66.5588C56.7469 66.2026 61.1531 65.6963 63.3953 65.2494C70.2078 63.9276 76.7937 57.7041 78.2984 50.9104C79.1547 46.7838 79.9953 41.1729 80.0094 33.5135C79.9875 25.851 79.1469 20.2416 78.2906 16.1151Z" fill="url(#paint0_linear_3367_88429)"/>
<path d="M40 0.000994646C32.3438 -0.0833804 20.7656 0.938495 16.6141 1.77131C9.80156 3.09787 3.21563 9.32131 1.71875 16.1151C0.854687 20.2401 0.0125 25.8526 0 33.5135C0.0125 41.1697 0.854687 46.7838 1.71875 50.9104C2.60469 54.9088 5.25156 58.7104 8.66875 61.4307C12.002 62.2288 15.4178 62.631 18.8453 62.6291C42.85 62.6291 62.3094 43.1697 62.3094 19.1666C62.3149 12.9155 60.9663 6.7374 58.3563 1.05724C53.0172 0.457245 45.4984 -0.0552554 40 0.000994646Z" fill="url(#paint1_linear_3367_88429)"/>
<path d="M44.4204 56.7398C44.3167 57.2265 44.0742 57.6727 43.7224 58.0246C43.3705 58.3765 42.9243 58.6189 42.4376 58.7227C40.8236 58.9706 39.1813 58.9706 37.5673 58.7227C37.0805 58.6191 36.6342 58.3767 36.2823 58.0248C35.9304 57.6729 35.688 57.2266 35.5845 56.7398C35.3345 55.1255 35.3345 53.4823 35.5845 51.868C35.688 51.3812 35.9304 50.9349 36.2823 50.583C36.6342 50.2311 37.0805 49.9887 37.5673 49.8852C39.1813 49.6372 40.8236 49.6372 42.4376 49.8852C42.9251 49.9893 43.3719 50.2327 43.7239 50.5858C44.0758 50.9388 44.3178 51.3864 44.4204 51.8742C44.6704 53.4886 44.6704 55.1318 44.4204 56.7461V56.7398ZM53.9329 31.1477C52.7267 32.8539 50.9189 34.4117 48.2439 36.0477C44.8579 38.1352 44.3157 38.993 44.3157 40.6727V41.3367C44.3267 41.9109 44.223 42.4815 44.0108 43.0151C43.7987 43.5487 43.4822 44.0347 43.08 44.4446C42.6778 44.8545 42.198 45.1801 41.6685 45.4024C41.139 45.6247 40.5705 45.7392 39.9962 45.7392C39.4219 45.7392 38.8534 45.6247 38.3239 45.4024C37.7944 45.1801 37.3146 44.8545 36.9124 44.4446C36.5102 44.0347 36.1938 43.5487 35.9816 43.0151C35.7694 42.4815 35.6658 41.9109 35.6767 41.3367V39.7977C35.6767 37.8164 36.172 36.1352 37.1907 34.6586C38.1782 33.2273 39.6595 31.9555 41.8532 30.6508C45.8985 28.2711 46.6392 26.9352 46.6392 25.1617C46.6392 22.9336 44.7407 21.493 41.7954 21.493C38.5782 21.493 36.4829 22.9555 35.5689 25.8414C35.2727 26.7698 34.6875 27.5793 33.8988 28.1516C33.11 28.7239 32.159 29.0291 31.1845 29.0227C31.072 29.0227 30.9579 29.0227 30.847 29.0102C30.1469 28.9608 29.4674 28.7522 28.8602 28.4001C28.2531 28.0481 27.7344 27.562 27.3439 26.9789C26.9536 26.4062 26.6995 25.7519 26.6009 25.0659C26.5023 24.3799 26.5619 23.6805 26.7751 23.0211C27.7126 20.0161 29.6353 17.4147 32.2329 15.6367C34.8517 13.8523 38.1595 12.9102 41.7954 12.9102C45.572 12.9102 49.0767 14.1148 51.6642 16.3023C54.3282 18.5523 55.7939 21.657 55.7939 25.043C55.8017 27.3711 55.1907 29.3742 53.9329 31.1477Z" fill="white"/>
</g>
<defs>
<linearGradient id="paint0_linear_3367_88429" x1="0" y1="-0.00390625" x2="84.6601" y2="5.26431" gradientUnits="userSpaceOnUse">
<stop stop-color="#0099FF"/>
<stop offset="1" stop-color="#12A1FF"/>
</linearGradient>
<linearGradient id="paint1_linear_3367_88429" x1="0" y1="-0.00390625" x2="68.5971" y2="44.8117" gradientUnits="userSpaceOnUse">
<stop stop-color="#3D9FFD"/>
<stop offset="1" stop-color="#3EC3FC"/>
</linearGradient>
<clipPath id="clip0_3367_88429">
<rect width="80" height="80" fill="white"/>
</clipPath>
</defs>
</svg>
