<svg width="71" height="71" viewBox="0 0 71 71" fill="none" xmlns="http://www.w3.org/2000/svg">
<path d="M25.9324 21.5654C25.8408 21.2748 25.6691 21.0159 25.4369 20.8185C25.2047 20.6212 24.9215 20.4934 24.6199 20.4498L19.5012 19.7061L17.3137 15.0904C17.1595 14.8369 16.9427 14.6274 16.6841 14.482C16.4255 14.3366 16.1338 14.2602 15.8371 14.2602C15.5404 14.2602 15.2487 14.3366 14.9901 14.482C14.7315 14.6274 14.5147 14.8369 14.3605 15.0904L12.173 19.7061L7.07617 20.4498C6.77155 20.492 6.48492 20.619 6.24898 20.8162C6.01304 21.0135 5.8373 21.2731 5.7418 21.5654C5.64929 21.8572 5.63914 22.1689 5.71248 22.4661C5.78581 22.7633 5.93979 23.0345 6.15742 23.2498L9.8543 26.8592L8.9793 31.9342C8.92773 32.2383 8.96181 32.5508 9.0777 32.8367C9.1936 33.1226 9.38675 33.3706 9.63555 33.5529C9.88474 33.7305 10.1786 33.8348 10.484 33.8542C10.7894 33.8735 11.0941 33.807 11.3637 33.6623L15.7605 31.2779L20.3543 33.6623C20.5803 33.793 20.837 33.861 21.098 33.8592C21.4427 33.858 21.7786 33.7511 22.0605 33.5529C22.3133 33.3741 22.5094 33.1266 22.6257 32.8397C22.7421 32.5528 22.7737 32.2385 22.7168 31.9342L21.8418 26.8592L25.5387 23.2498C25.7569 23.035 25.9097 22.7628 25.9794 22.4646C26.0491 22.1665 26.0328 21.8547 25.9324 21.5654ZM65.7668 21.5654C65.6713 21.2731 65.4956 21.0135 65.2596 20.8162C65.0237 20.619 64.737 20.492 64.4324 20.4498L59.3355 19.7061L57.148 15.0904C56.9939 14.8369 56.7771 14.6274 56.5185 14.482C56.2599 14.3366 55.9682 14.2602 55.6715 14.2602C55.3748 14.2602 55.0831 14.3366 54.8245 14.482C54.5659 14.6274 54.3491 14.8369 54.1949 15.0904L52.0074 19.7061L46.8887 20.4498C46.5864 20.4955 46.3029 20.6247 46.0702 20.8229C45.8375 21.0211 45.6647 21.2804 45.5715 21.5715C45.4782 21.8627 45.4682 22.174 45.5424 22.4706C45.6167 22.7671 45.7723 23.037 45.9918 23.2498L49.6887 26.8592L48.8137 31.9342C48.7568 32.2385 48.7884 32.5528 48.9047 32.8397C49.021 33.1266 49.2172 33.3741 49.4699 33.5529C49.7147 33.731 50.0051 33.8358 50.3072 33.8552C50.6093 33.8746 50.9106 33.8077 51.1762 33.6623L55.748 31.2779L60.3199 33.6623C60.5546 33.7911 60.8179 33.8588 61.0855 33.8592C61.4297 33.8552 61.7649 33.7486 62.048 33.5529C62.2968 33.3706 62.49 33.1226 62.6059 32.8367C62.7218 32.5508 62.7559 32.2383 62.7043 31.9342L61.8293 26.8592L65.5262 23.2498C65.7143 23.0168 65.8359 22.7372 65.8783 22.4407C65.9206 22.1442 65.8821 21.8418 65.7668 21.5654ZM47.2824 13.8654C47.1908 13.5748 47.0191 13.3159 46.7869 13.1185C46.5547 12.9212 46.2715 12.7934 45.9699 12.7498L39.8668 11.8529L37.1324 6.34043C36.9811 6.08662 36.7665 5.87645 36.5096 5.7305C36.2527 5.58455 35.9623 5.50781 35.6668 5.50781C35.3713 5.50781 35.0809 5.58455 34.824 5.7305C34.5671 5.87645 34.3525 6.08662 34.2012 6.34043L31.4668 11.8529L25.3637 12.7498C25.0614 12.7955 24.7779 12.9247 24.5452 13.1229C24.3125 13.3211 24.1397 13.5804 24.0465 13.8715C23.9532 14.1627 23.9432 14.474 24.0174 14.7706C24.0917 15.0671 24.2473 15.337 24.4668 15.5498L28.8418 19.9248L27.8137 25.9842C27.7621 26.2883 27.7962 26.6008 27.9121 26.8867C28.028 27.1726 28.2211 27.4206 28.4699 27.6029C28.7191 27.7805 29.013 27.8848 29.3184 27.9042C29.6238 27.9235 29.9285 27.857 30.198 27.7123L35.6668 24.7811L41.1137 27.6467C41.3483 27.7754 41.6116 27.8431 41.8793 27.8436C42.1191 27.844 42.356 27.7919 42.5735 27.6908C42.7909 27.5898 42.9836 27.4424 43.1379 27.2588C43.2923 27.0753 43.4045 26.8602 43.4667 26.6287C43.5289 26.3971 43.5396 26.1547 43.498 25.9186L42.4699 19.8592L46.8449 15.4842C47.0587 15.28 47.2125 15.0212 47.2896 14.7359C47.3667 14.4505 47.3642 14.1495 47.2824 13.8654Z" fill="#FFC107"/>
<path d="M35.6688 48.1445C31.4818 48.1503 27.4679 49.8162 24.5073 52.7768C21.5466 55.7375 19.8808 59.7513 19.875 63.9383C19.875 64.5184 20.1055 65.0748 20.5157 65.4851C20.9259 65.8953 21.4823 66.1258 22.0625 66.1258H49.275C49.8552 66.1258 50.4116 65.8953 50.8218 65.4851C51.232 65.0748 51.4625 64.5184 51.4625 63.9383C51.4567 59.7513 49.7909 55.7375 46.8302 52.7768C43.8696 49.8162 39.8557 48.1503 35.6688 48.1445Z" fill="#2196F3"/>
<path d="M35.6656 31.125C33.55 31.125 31.4819 31.7524 29.7228 32.9277C27.9637 34.1031 26.5926 35.7738 25.783 37.7284C24.9734 39.683 24.7616 41.8337 25.1743 43.9087C25.587 45.9837 26.6058 47.8897 28.1018 49.3857C29.5978 50.8817 31.5038 51.9005 33.5788 52.3132C35.6538 52.726 37.8045 52.5141 39.7591 51.7045C41.7137 50.8949 43.3844 49.5238 44.5598 47.7647C45.7351 46.0056 46.3625 43.9375 46.3625 41.8219C46.3625 38.9849 45.2355 36.2641 43.2295 34.258C41.2234 32.252 38.5026 31.125 35.6656 31.125Z" fill="#FFCC80"/>
</svg>
