<svg width="71" height="71" viewBox="0 0 71 71" fill="none" xmlns="http://www.w3.org/2000/svg">
<g clip-path="url(#clip0_3367_88266)">
<path d="M35.332 70.5C54.662 70.5 70.332 54.83 70.332 35.5C70.332 16.17 54.662 0.5 35.332 0.5C16.0021 0.5 0.332031 16.17 0.332031 35.5C0.332031 54.83 16.0021 70.5 35.332 70.5Z" fill="#0CB0FF"/>
<path fill-rule="evenodd" clip-rule="evenodd" d="M67.5211 49.2617C66.053 52.6865 64.0478 55.8551 61.5812 58.648L61.5804 58.649C61.5312 58.7047 61.4819 58.7602 61.4324 58.8155L61.4307 58.8176C61.3336 58.9261 61.2358 59.0341 61.1374 59.1414L61.1237 59.1566C61.0782 59.2064 61.0326 59.256 60.987 59.3054L60.9705 59.3231C60.924 59.3732 60.8774 59.4231 60.8306 59.4729L60.819 59.4852C60.7717 59.5355 60.7244 59.5854 60.6768 59.6355L60.6631 59.6503L60.5264 59.7936L60.5044 59.8164C60.4609 59.8614 60.4173 59.9062 60.3736 59.9511L60.3439 59.9814C60.2999 60.0264 60.2557 60.0712 60.2115 60.116L60.1894 60.1384C60.1451 60.183 60.1008 60.2274 60.0564 60.2718L60.0251 60.303C59.9846 60.3433 59.944 60.3835 59.9032 60.4237L59.8585 60.4678C59.8175 60.5075 59.7775 60.5472 59.7367 60.5868L59.7025 60.6201C59.6619 60.6594 59.6211 60.6988 59.5803 60.738L59.5312 60.7851L59.4187 60.8923L59.3703 60.9382C59.3301 60.9762 59.2898 61.0141 59.2495 61.0518L59.2078 61.0908L59.1379 61.1561C58.8428 61.4301 58.543 61.699 58.2384 61.9628L58.2405 61.9647C52.976 66.5333 46.4629 69.4188 39.5421 70.2486L22.3906 55.5151L22.4727 55.5792L22.5573 55.6397L22.6449 55.6959L22.7353 55.748L22.8281 55.7957L22.9238 55.8391L23.0219 55.8778L23.1219 55.912L23.2242 55.9411L23.3281 55.9653L23.4342 55.9843L23.5418 55.998L23.6512 56.0063L23.7618 56.0092H43.7227L33.2911 46.1726L33.4082 46.2768L33.5279 46.3749L33.6497 46.4667L33.7736 46.552L33.8996 46.6309L34.0273 46.703L34.1569 46.7685L34.2883 46.8272L34.4211 46.8789L34.5553 46.9237L34.6908 46.9612L34.8275 46.9915L34.9653 47.0146L35.1041 47.0301L35.2436 47.0381H35.3838L35.5248 47.0308L35.666 47.0156L35.8077 46.9925L35.9496 46.9612L36.0915 46.9219L36.2335 46.8742L36.3756 46.8183L36.5171 46.7539L36.6583 46.6809L36.7993 46.5989L36.9394 46.5085L37.0789 46.4092L37.2175 46.3011L37.3552 46.1836L37.4919 46.0572L38.5338 45.0154L33.1239 39.7622L26.7811 33.4193L38.6224 44.9267L40.6785 42.8707L37.5406 39.7622V17.2021L37.5377 17.0889L37.5292 16.9771L37.5155 16.8671L37.4961 16.7585L37.4714 16.6519L37.4414 16.5473L37.4066 16.4449L37.3669 16.3446L37.3226 16.2469L37.2736 16.1512L37.2202 16.0586L37.1627 15.9691L37.1009 15.8824L37.0353 15.7989L36.9658 15.7188L67.5224 49.2612L67.5211 49.2617Z" fill="#0092D8"/>
<path fill-rule="evenodd" clip-rule="evenodd" d="M37.4909 46.0584L47.0057 36.5437C47.2108 36.3386 47.3735 36.0952 47.4845 35.8272C47.5954 35.5593 47.6526 35.2721 47.6526 34.9821C47.6526 34.6921 47.5954 34.4049 47.4845 34.1369C47.3735 33.869 47.2108 33.6256 47.0057 33.4205C46.8007 33.2154 46.5572 33.0527 46.2893 32.9418C46.0213 32.8308 45.7341 32.7736 45.4441 32.7736C45.1541 32.7736 44.8669 32.8308 44.599 32.9418C44.3311 33.0527 44.0876 33.2154 43.8825 33.4205L37.5396 39.7634V17.2024C37.5419 16.9109 37.4865 16.6219 37.3765 16.3519C37.2666 16.082 37.1043 15.8365 36.899 15.6295C36.6937 15.4226 36.4495 15.2584 36.1804 15.1463C35.9113 15.0343 35.6227 14.9766 35.3312 14.9766C35.0398 14.9766 34.7512 15.0343 34.4821 15.1463C34.213 15.2584 33.9688 15.4226 33.7635 15.6295C33.5582 15.8365 33.3959 16.082 33.286 16.3519C33.176 16.6219 33.1206 16.9109 33.1229 17.2024V39.7634L26.7801 33.4205C26.3659 33.0063 25.8042 32.7736 25.2185 32.7736C24.6328 32.7736 24.0711 33.0063 23.6569 33.4205C23.2427 33.8346 23.0101 34.3964 23.0101 34.9821C23.0101 35.5678 23.2427 36.1295 23.6569 36.5437L33.1758 46.0625C34.3855 47.2721 36.0403 47.457 37.4911 46.0584H37.4909ZM46.9015 51.6951H23.7604C23.4757 51.6929 23.1933 51.747 22.9296 51.8544C22.6659 51.9618 22.426 52.1203 22.2239 52.3209C22.0217 52.5214 21.8613 52.76 21.7518 53.0228C21.6423 53.2857 21.5859 53.5676 21.5859 53.8523C21.5859 54.1371 21.6423 54.419 21.7518 54.6819C21.8613 54.9447 22.0217 55.1833 22.2239 55.3838C22.426 55.5844 22.6659 55.7429 22.9296 55.8503C23.1933 55.9577 23.4757 56.0118 23.7604 56.0096H46.9011C47.1859 56.0118 47.4682 55.9577 47.732 55.8503C47.9957 55.7429 48.2355 55.5844 48.4377 55.3838C48.6398 55.1833 48.8002 54.9447 48.9097 54.6819C49.0192 54.419 49.0756 54.1371 49.0756 53.8523C49.0756 53.5676 49.0192 53.2857 48.9097 53.0228C48.8002 52.76 48.6398 52.5214 48.4377 52.3209C48.2355 52.1203 47.9957 51.9618 47.732 51.8544C47.4682 51.747 47.1859 51.6929 46.9011 51.6951H46.9015Z" fill="white"/>
</g>
<defs>
<clipPath id="clip0_3367_88266">
<rect width="70" height="70" fill="white" transform="translate(0.332031 0.5)"/>
</clipPath>
</defs>
</svg>
