<svg width="70" height="71" viewBox="0 0 70 71" fill="none" xmlns="http://www.w3.org/2000/svg">
<g clip-path="url(#clip0_3367_88276)">
<path d="M4.66238 54.057L60.0132 57.4693C64.388 51.8092 66.9926 44.7113 66.9926 37.0042C66.9926 18.5046 51.9958 3.50781 33.4962 3.50781C14.9967 3.50781 0 18.5045 0 37.004C0 43.232 1.7016 49.0615 4.66238 54.057Z" fill="#FFDD40"/>
<path d="M20.6483 8.32812C20.6483 10.7938 18.6493 12.7928 16.1836 12.7928H60.0151V8.32812H20.6483Z" fill="#BECAF5"/>
<path d="M4.66406 8.32812V12.7928H16.463C18.9287 12.7928 20.9277 10.7938 20.9277 8.32812H4.66406Z" fill="#3C58A0"/>
<path d="M17.6083 12.5117C17.6083 12.5117 14.455 26.6933 28.3448 29.7033L25.0654 48.8092C25.0654 48.8092 18.9016 61.8094 28.7106 70.16C30.2957 70.3868 31.8949 70.5006 33.4961 70.5006C44.2884 70.5006 53.887 65.3952 60.0129 57.4694V12.5117H17.6083Z" fill="#DEEEFF"/>
<path d="M4.66406 12.5117V54.057C9.80605 62.7326 18.7507 68.8881 29.2028 70.2264C19.2816 61.8784 25.4774 48.8092 25.4774 48.8092L28.7568 29.7033C14.867 26.6933 18.0203 12.5117 18.0203 12.5117H4.66406Z" fill="#D3DCFB"/>
<path d="M55.1369 0.5H19.8562C19.8562 0.5 18.545 1.8691 19.8562 3.18037L20.0352 5.78514C20.0352 5.78514 18.9197 7.47238 20.6462 8.58609H60.013V5.37594C60.0128 2.6942 57.8188 0.5 55.1369 0.5Z" fill="#2A428C"/>
<path d="M9.54 0.5C6.8584 0.5 4.66406 2.6942 4.66406 5.37594V8.58609H20.9279C19.2014 7.47238 20.3169 5.78514 20.3169 5.78514L20.1379 3.18037C18.8266 1.8691 20.1379 0.5 20.1379 0.5L9.54 0.5Z" fill="#1C2E7A"/>
<path d="M12.2336 4.54451C12.2336 5.41254 11.5299 6.11637 10.6617 6.11637C9.79367 6.11637 9.08984 5.41268 9.08984 4.54451C9.08984 3.67635 9.79353 2.97266 10.6617 2.97266C11.5297 2.97266 12.2336 3.67635 12.2336 4.54451Z" fill="#FF4155"/>
<path d="M16.5812 4.54451C16.5812 5.41254 15.8775 6.11637 15.0094 6.11637C14.1413 6.11637 13.4375 5.41268 13.4375 4.54451C13.4375 3.67635 14.1412 2.97266 15.0094 2.97266C15.8774 2.97266 16.5812 3.67635 16.5812 4.54451Z" fill="#FFDD40"/>
<path d="M20.925 4.54451C20.925 5.41254 20.2213 6.11637 19.3531 6.11637C18.4851 6.11637 17.7812 5.41268 17.7812 4.54451C17.7812 3.67635 18.4849 2.97266 19.3531 2.97266C20.2213 2.97266 20.925 3.67635 20.925 4.54451Z" fill="#88CE65"/>
<path d="M34.3925 4.54459C34.3925 4.26651 34.503 3.99982 34.6996 3.80319C34.8963 3.60656 35.163 3.49609 35.441 3.49609H26.0876C25.5084 3.49609 25.0391 3.96545 25.0391 4.54459C25.0391 5.12373 25.5084 5.59309 26.0876 5.59309H35.441C35.3033 5.5931 35.167 5.566 35.0398 5.51331C34.9126 5.46063 34.797 5.38339 34.6996 5.28603C34.6022 5.18866 34.525 5.07307 34.4723 4.94585C34.4196 4.81864 34.3925 4.68229 34.3925 4.54459Z" fill="#3C58A0"/>
<path d="M43.0474 4.54459C43.0474 4.26651 42.937 3.99982 42.7403 3.80319C42.5437 3.60656 42.277 3.49609 41.9989 3.49609H35.1618C34.8837 3.49609 34.617 3.60656 34.4204 3.80319C34.2237 3.99982 34.1133 4.26651 34.1133 4.54459C34.1133 4.82267 34.2237 5.08936 34.4204 5.28599C34.617 5.48262 34.8837 5.59309 35.1618 5.59309H41.9989C42.1366 5.5931 42.273 5.566 42.4002 5.51331C42.5274 5.46063 42.643 5.38339 42.7404 5.28603C42.8378 5.18866 42.915 5.07307 42.9677 4.94585C43.0204 4.81864 43.0475 4.68229 43.0474 4.54459ZM54.6707 5.59309H53.3041C53.026 5.59309 52.7593 5.48262 52.5627 5.28599C52.3661 5.08936 52.2556 4.82267 52.2556 4.54459C52.2556 4.26651 52.3661 3.99982 52.5627 3.80319C52.7593 3.60656 53.026 3.49609 53.3041 3.49609H54.6707C54.9488 3.49609 55.2155 3.60656 55.4121 3.80319C55.6088 3.99982 55.7192 4.26651 55.7192 4.54459C55.7192 4.82267 55.6088 5.08936 55.4121 5.28599C55.2155 5.48262 54.9488 5.59309 54.6707 5.59309Z" fill="#6289CC"/>
<path d="M49.9192 5.59309H48.5524C48.2743 5.59309 48.0076 5.48262 47.811 5.28599C47.6144 5.08936 47.5039 4.82267 47.5039 4.54459C47.5039 4.26651 47.6144 3.99982 47.811 3.80319C48.0076 3.60656 48.2743 3.49609 48.5524 3.49609H49.9192C50.1973 3.49609 50.4639 3.60656 50.6606 3.80319C50.8572 3.99982 50.9677 4.26651 50.9677 4.54459C50.9677 4.82267 50.8572 5.08936 50.6606 5.28599C50.4639 5.48262 50.1973 5.59309 49.9192 5.59309Z" fill="#3C58A0"/>
<path d="M65.3113 35.8995C64.7259 35.7231 64.2746 35.2573 64.0804 34.6776C62.846 30.9933 59.4041 28.3553 55.382 28.2672C54.69 28.252 54.0608 27.8761 53.7247 27.271C51.91 24.004 48.4246 21.793 44.4224 21.793C43.4212 21.7924 42.4249 21.9332 41.463 22.2113L41.6466 22.2465C41.4317 22.9035 40.9272 24.8224 41.6806 26.5444C42.1381 27.5903 42.9791 28.3706 44.1817 28.8657V43.9924C43.9125 44.2226 43.0755 45.0285 42.9943 46.2094C42.9338 47.0887 43.3067 47.9624 44.1018 48.8089H63.2998C66.9309 48.8089 70.004 45.8387 70.0006 42.2075C69.9977 39.2305 68.0224 36.7164 65.3113 35.8995Z" fill="#49B1F7"/>
<path d="M44.3876 44.0894V28.7266C39.9653 27.019 41.9201 22.0903 41.9202 22.0898C38.9956 22.7956 36.5421 24.7098 35.1186 27.2749C34.7852 27.8759 34.1613 28.2505 33.4743 28.2699C29.4952 28.3827 26.0929 30.9878 24.8517 34.6342C24.6505 35.2254 24.1848 35.6965 23.5835 35.8652C20.8292 36.6377 18.8037 39.1525 18.7738 42.1466C18.7371 45.8107 21.8129 48.8087 25.4771 48.8087H44.3875C41.7022 46.1234 44.3876 44.0894 44.3876 44.0894Z" fill="#218EE8"/>
<path d="M43.1567 43.5822L38.0854 38.5203C37.4048 37.841 37.4037 36.7385 38.083 36.058C38.7625 35.3773 39.865 35.3765 40.5455 36.0557L44.3867 39.8898L48.2278 36.0557C48.9087 35.3766 50.0111 35.3773 50.6901 36.058C51.3696 36.7386 51.3685 37.841 50.688 38.5203L45.6168 43.5822C44.937 44.2607 43.8366 44.2607 43.1567 43.5822Z" fill="#D3DCFB"/>
<path d="M44.3856 41.5583C43.4241 41.5583 42.6445 40.7787 42.6445 39.8172V30.4677C42.6445 29.506 43.4241 28.7266 44.3856 28.7266C45.3472 28.7266 46.1268 29.5061 46.1268 30.4677V39.8172C46.1268 40.7789 45.3472 41.5583 44.3856 41.5583Z" fill="#DEEEFF"/>
</g>
<defs>
<clipPath id="clip0_3367_88276">
<rect width="70" height="70" fill="white" transform="translate(0 0.5)"/>
</clipPath>
</defs>
</svg>
