<svg width="70" height="71" viewBox="0 0 70 71" fill="none" xmlns="http://www.w3.org/2000/svg">
<g clip-path="url(#clip0_3367_88188)">
<path d="M70 35.5C70 40.6771 68.8758 45.5916 66.8586 50.013C63.4103 57.5715 57.3513 63.687 49.8356 67.2101C48.4655 67.8517 47.0549 68.4028 45.6128 68.8599C43.9635 69.3862 42.2768 69.7868 40.5671 70.0584C40.5595 70.0603 40.5518 70.0613 40.5441 70.0615C39.6913 70.1977 38.8337 70.3021 37.9731 70.3745C37.7879 70.3901 37.6026 70.4044 37.4172 70.4173C37.1544 70.4348 36.8914 70.4496 36.6283 70.4616C36.0883 70.4871 35.5458 70.5 35 70.5C34.4397 70.5 33.8844 70.4872 33.3316 70.4599C33.0817 70.4487 32.8312 70.4344 32.5813 70.4156C32.395 70.4033 32.2088 70.3896 32.0227 70.3745C31.1414 70.3004 30.2633 70.1927 29.3903 70.0514C28.977 69.9851 28.565 69.9112 28.1544 69.8298C26.3996 69.4826 24.6744 68.9998 22.9943 68.3856C22.0335 68.0354 21.0888 67.6427 20.1629 67.2085C19.8479 67.0609 19.5354 66.908 19.2255 66.7498C18.4305 66.3478 17.6515 65.9151 16.8901 65.4526C13.0828 63.1471 9.75133 60.1356 7.0741 56.6001C5.45699 54.4647 4.09098 52.1503 3.00303 49.7026C1.07297 45.3632 0 40.5571 0 35.5C0 16.1697 15.6697 0.5 35 0.5C54.3303 0.5 70 16.1697 70 35.5Z" fill="url(#paint0_linear_3367_88188)"/>
<path d="M28.1554 45.9195V69.8293C26.4005 69.4822 24.6753 68.9993 22.9952 68.3852C22.0344 68.035 21.0896 67.6422 20.1638 67.208C19.8488 67.0604 19.5363 66.9075 19.2264 66.7493C18.4314 66.3474 17.6523 65.9146 16.891 65.4521C13.0836 63.1467 9.75221 60.1352 7.07498 56.5996C5.45787 54.4642 4.09186 52.1499 3.00391 49.7021V45.9195C3.00391 41.5312 5.98396 37.8381 10.031 36.7567C10.1794 36.7159 10.329 36.6797 10.4797 36.6482C10.8864 36.5592 11.2988 36.498 11.7138 36.465C11.9718 36.4446 12.2305 36.4341 12.4893 36.4336H18.6678C19.3578 36.4336 20.0307 36.5067 20.6796 36.6482C20.7165 36.6552 20.7538 36.6638 20.7907 36.6723C20.8996 36.6969 21.0096 36.7236 21.1164 36.7524C21.1197 36.7541 21.1223 36.7541 21.125 36.7552C22.1786 37.0372 23.1754 37.4997 24.0709 38.1223C26.5392 39.835 28.1554 42.6879 28.1554 45.9194V45.9195Z" fill="#2BA1CF"/>
<path d="M28.1546 45.9195V69.8293C26.3998 69.4822 24.6745 68.9993 22.9944 68.3852C22.0336 68.035 21.0889 67.6422 20.163 67.208C19.848 67.0604 19.5355 66.9075 19.2256 66.7493C18.4306 66.3474 17.6516 65.9146 16.8902 65.4521C13.0829 63.1467 9.75145 60.1352 7.07422 56.5996V45.9195C7.07422 41.5312 10.0543 37.8381 14.1014 36.7567C14.2498 36.716 14.3993 36.6798 14.5499 36.6482C14.9567 36.5593 15.3691 36.4981 15.7842 36.465C16.0423 36.4446 16.3012 36.4341 16.5602 36.4336H18.667C19.357 36.4336 20.03 36.5067 20.6788 36.6482C20.7157 36.6552 20.7531 36.6638 20.79 36.6723C20.8988 36.6969 21.0089 36.7236 21.1156 36.7524C21.1189 36.7541 21.1215 36.7541 21.1243 36.7552C22.1779 37.0372 23.1746 37.4997 24.0701 38.1223C26.5385 39.835 28.1546 42.6879 28.1546 45.9194V45.9195Z" fill="#66BAED"/>
<path d="M21.1472 36.6486L21.1248 36.756L18.2868 49.9553C18.0145 51.2236 16.8983 52.1432 15.6017 52.1443H15.5535C14.2562 52.1432 13.1406 51.2236 12.8682 49.9553L10.0302 36.7569L10.0078 36.6484L21.1472 36.6486Z" fill="#F2F0EC"/>
<path d="M15.5775 40.3182L11.3066 42.6916L10.0078 36.6486L12.6615 35.0859M15.5775 40.3182L19.8484 42.6916L21.1472 36.6486L18.4935 35.0859" fill="#D8D5D0"/>
<path d="M2.82812 34.1492V19.8427C2.82812 18.389 3.07053 16.9646 3.54904 15.6092C5.33978 10.5144 10.1746 7.08984 15.5797 7.08984C16.2495 7.08984 16.9175 7.1418 17.567 7.24434C20.5365 7.70836 23.2612 9.22402 25.2366 11.5124C27.2341 13.8281 28.3328 16.7845 28.3326 19.8427V34.1489" fill="#CC7A3B"/>
<path d="M8.07039 20.4001C8.07039 25.4602 11.0339 31.3146 12.6611 34.1477H2.82422V19.8416C2.82422 18.3883 3.0673 16.9641 3.54527 15.6081C5.32535 10.5427 10.1158 7.12826 15.4836 7.08984C11.5631 7.1876 8.07039 13.4778 8.07039 20.4002V20.4001Z" fill="#A35418"/>
<path d="M18.964 32.7812V36.9352C18.964 38.4556 17.9616 39.7412 16.5806 40.1679C16.2563 40.2684 15.9186 40.3193 15.5791 40.319C13.7099 40.319 12.1953 38.8044 12.1953 36.9352V32.7812H18.964Z" fill="#EAB599"/>
<path d="M18.9633 36.6693V36.9325C18.9633 38.4529 17.9609 39.7385 16.5799 40.1652C15.3338 39.7823 14.3972 38.6986 14.2242 37.3731C15.08 37.4246 15.9388 37.3809 16.785 37.2429C17.5281 37.1233 18.2577 36.9313 18.9633 36.6693ZM6.29494 25.9715C6.29494 27.5384 5.15047 28.8378 3.65135 29.0787C3.48469 29.1058 3.31611 29.1194 3.14727 29.1193C1.40889 29.1193 0 27.7104 0 25.9715C0 24.2332 1.40889 22.8242 3.14727 22.8242C3.31912 22.8242 3.48797 22.8382 3.65135 22.865C5.15047 23.1057 6.29494 24.4045 6.29494 25.9715Z" fill="#F6CAAE"/>
<path d="M6.29565 25.9737C6.29565 27.5406 5.15117 28.84 3.65205 29.0809C3.37425 28.0686 3.23377 27.0235 3.23438 25.9737C3.23382 24.9242 3.3743 23.8793 3.65205 22.8672C5.15117 23.1079 6.29565 24.4068 6.29565 25.9737Z" fill="#EAB599"/>
<path d="M4.27355 25.9724C4.27363 26.2708 4.15516 26.557 3.94423 26.7681C3.73329 26.9791 3.44715 27.0977 3.14877 27.0978C2.85039 27.0978 2.56419 26.9794 2.35315 26.7684C2.14211 26.5575 2.02351 26.2714 2.02344 25.973C2.02337 25.6746 2.14183 25.3884 2.35277 25.1774C2.5637 24.9663 2.84984 24.8477 3.14822 24.8477C3.44661 24.8476 3.7328 24.966 3.94384 25.177C4.15488 25.3879 4.27348 25.6741 4.27355 25.9724Z" fill="#EAB599"/>
<path d="M23.6589 21.9527V32.7717C21.9868 34.3679 19.8425 35.4734 17.4568 35.8579L17.3991 35.8675C16.7964 35.9627 16.1871 36.01 15.5769 36.009C9.11008 36.009 3.86719 30.7663 3.86719 24.2993V19.84C3.86719 19.269 3.90779 18.7073 3.98682 18.1582C6.77301 20.162 10.7678 19.9638 13.3131 17.5584C14.1558 16.7622 14.7417 15.8142 15.0727 14.8086C15.257 16.5694 16.0625 18.2832 17.4898 19.6327C19.1893 21.237 21.4345 22.0109 23.6589 21.9527Z" fill="#EAB599"/>
<path d="M23.6607 21.9527V32.7717C21.9887 34.3679 19.8444 35.4734 17.4586 35.8579L17.4009 35.8675C11.7998 34.9922 7.51562 30.1452 7.51562 24.2993V19.84C7.51562 19.7214 7.51768 19.6035 7.52205 19.4859C9.58664 19.6974 11.7315 19.0554 13.3148 17.5579C14.1577 16.7622 14.7435 15.8138 15.0747 14.8086C15.2588 16.5694 16.0642 18.2832 17.4919 19.6327C19.1913 21.237 21.4363 22.0109 23.6606 21.9527H23.6607Z" fill="#F6CAAE"/>
<path d="M21.8696 23.3123C21.8696 22.2377 20.9984 21.3672 19.9245 21.3672C18.8504 21.3672 17.9794 22.2377 17.9794 23.3123M13.1825 23.3123C13.1825 22.2377 12.3116 21.3672 11.2375 21.3672C10.1635 21.3672 9.29297 22.2377 9.29297 23.3123" fill="#EAB599"/>
<path d="M12.5631 24.1407C12.5631 24.8745 11.9682 25.4695 11.2345 25.4695C10.5006 25.4695 9.90625 24.8745 9.90625 24.1407C9.90625 23.407 10.5006 22.8125 11.2345 22.8125C11.9682 22.8125 12.5631 23.407 12.5631 24.1407ZM21.2497 24.1407C21.2497 24.8745 20.6552 25.4695 19.9214 25.4695C19.1875 25.4695 18.5932 24.8745 18.5932 24.1407C18.5932 23.407 19.1875 22.8125 19.9214 22.8125C20.0959 22.8125 20.2686 22.8468 20.4297 22.9136C20.5909 22.9803 20.7373 23.0782 20.8606 23.2015C20.984 23.3248 21.0818 23.4713 21.1485 23.6324C21.2152 23.7936 21.2496 23.9663 21.2495 24.1407H21.2497Z" fill="#3D4159"/>
<path d="M16.9068 27.486H14.2498C14.0994 27.4836 13.9559 27.4222 13.8503 27.315C13.7447 27.2078 13.6856 27.0634 13.6856 26.9129C13.6856 26.7624 13.7447 26.618 13.8503 26.5108C13.9559 26.4036 14.0994 26.3422 14.2498 26.3398H16.9068C17.0588 26.3398 17.2046 26.4002 17.312 26.5077C17.4195 26.6152 17.4799 26.7609 17.4799 26.9129C17.4799 27.0649 17.4195 27.2106 17.312 27.3181C17.2046 27.4256 17.0588 27.486 16.9068 27.486ZM15.5781 31.1116C14.5975 31.1116 13.617 30.8661 12.723 30.3741C12.6019 30.3076 12.5123 30.1956 12.4738 30.063C12.4353 29.9303 12.451 29.7878 12.5176 29.6668C12.5842 29.5457 12.6961 29.4561 12.8288 29.4176C12.9614 29.3791 13.104 29.3948 13.225 29.4614C14.6985 30.2716 16.4577 30.2716 17.9311 29.4614C18.0522 29.3948 18.1947 29.3791 18.3273 29.4176C18.46 29.4561 18.5719 29.5457 18.6385 29.6668C18.7051 29.7878 18.7208 29.9303 18.6823 30.063C18.6438 30.1956 18.5542 30.3076 18.4332 30.3741C17.539 30.8661 16.5586 31.1117 15.5781 31.1117V31.1116Z" fill="#EAB599"/>
<path d="M12.2951 23.9061C12.2951 24.0571 12.2351 24.202 12.1282 24.3087C12.0214 24.4155 11.8766 24.4754 11.7255 24.4754C11.5745 24.4754 11.4297 24.4153 11.3229 24.3085C11.2162 24.2017 11.1562 24.0569 11.1563 23.9058C11.1563 23.7548 11.2163 23.61 11.3231 23.5032C11.4299 23.3965 11.5748 23.3365 11.7258 23.3365C11.8768 23.3366 12.0217 23.3966 12.1284 23.5034C12.2352 23.6102 12.2952 23.7551 12.2951 23.9061ZM21.0468 23.9061C21.0468 24.057 20.9868 24.2018 20.8801 24.3085C20.7733 24.4152 20.6286 24.4752 20.4777 24.4752C20.3267 24.4752 20.182 24.4152 20.0753 24.3085C19.9685 24.2018 19.9086 24.057 19.9086 23.9061C19.9074 23.8306 19.9213 23.7557 19.9493 23.6856C19.9774 23.6155 20.0191 23.5517 20.0721 23.498C20.1251 23.4442 20.1882 23.4015 20.2578 23.3723C20.3274 23.3431 20.4022 23.3281 20.4777 23.3281C20.5532 23.3281 20.6279 23.3431 20.6975 23.3723C20.7671 23.4015 20.8303 23.4442 20.8832 23.498C20.9362 23.5517 20.9779 23.6155 21.006 23.6856C21.0341 23.7557 21.0479 23.8306 21.0468 23.9061Z" fill="white"/>
<path d="M23.5505 27.377C23.5505 28.1823 22.8974 28.8355 22.0914 28.8355C21.2862 28.8355 20.6329 28.1824 20.6329 27.377C20.6329 26.5712 21.2862 25.918 22.0914 25.918C22.8974 25.918 23.5505 26.5712 23.5505 27.377ZM10.5264 27.377C10.5264 28.1823 9.87385 28.8355 9.06789 28.8355C8.26262 28.8355 7.60938 28.1824 7.60938 27.377C7.60938 26.5712 8.26262 25.918 9.06789 25.918C9.87385 25.918 10.5264 26.5712 10.5264 27.377Z" fill="#EAB599"/>
<path d="M66.8575 45.6298V50.0113C63.4092 57.5699 57.3502 63.6853 49.8345 67.2086C48.4644 67.8501 47.0538 68.4011 45.6117 68.8582C43.9624 69.3845 42.2757 69.7851 40.5659 70.0567C40.5584 70.0586 40.5507 70.0596 40.543 70.0598V45.6298C40.543 40.4229 44.5532 36.1509 49.6561 35.7396C49.9259 35.7172 50.1966 35.7064 50.4674 35.7071H56.9305C57.6947 35.7071 58.4386 35.791 59.1533 35.9555C63.5645 36.9638 66.8575 40.9143 66.8575 45.6298Z" fill="#BFD5DE"/>
<path d="M66.8591 45.6298V50.0112C63.4108 57.5699 57.3518 63.6853 49.8361 67.2085C48.466 67.85 47.0554 68.4011 45.6133 68.8582V45.6298C45.6133 40.1498 50.0577 35.707 55.5393 35.707H56.9332C62.4163 35.707 66.8591 40.1498 66.8591 45.6298Z" fill="#DDE8ED"/>
<path d="M43.9884 24.7618C43.9884 26.4013 42.7911 27.7604 41.2231 28.0125C41.0486 28.0407 40.8721 28.0548 40.6954 28.0548C38.8764 28.0548 37.4023 26.5808 37.4023 24.7618C37.4023 22.9427 38.8764 21.4688 40.6954 21.4688C40.8754 21.4688 41.0516 21.4831 41.2231 21.511C42.7911 21.7635 43.9884 23.1228 43.9884 24.7618Z" fill="#D3A489"/>
<path d="M56.3639 39.2891L53.6995 43.5628L51.0352 39.2892" fill="#F74F4F"/>
<path d="M57.287 55.633L53.7024 60.1565L50.1172 55.633L53.7029 42.4492L57.287 55.633Z" fill="#F74F4F"/>
<path d="M43.9873 24.7626C43.9873 26.4021 42.79 27.7613 41.222 28.0134C40.9313 26.9543 40.7844 25.8609 40.7852 24.7626C40.7852 23.6378 40.9373 22.5478 41.222 21.5117C42.79 21.7644 43.9873 23.1236 43.9873 24.7626Z" fill="#BF8E75"/>
<path d="M41.8731 24.7625C41.8731 24.9171 41.8427 25.0702 41.7835 25.213C41.7244 25.3558 41.6377 25.4856 41.5284 25.5949C41.4191 25.7042 41.2893 25.7909 41.1465 25.8501C41.0037 25.9092 40.8506 25.9397 40.696 25.9397C40.0462 25.9397 39.5195 25.4125 39.5195 24.7625C39.5195 24.1126 40.0462 23.5859 40.696 23.5859C41.346 23.5859 41.8731 24.1126 41.8731 24.7625Z" fill="#BF8E75"/>
<path d="M53.698 39.7714L49.2301 42.2547L47.8711 35.932L50.647 34.2969M53.698 39.7714L58.1666 42.2547L59.5257 35.932L56.7492 34.2969" fill="#BFD5DE"/>
<path d="M63.4141 24.7618C63.4141 26.4013 64.6114 27.7604 66.1795 28.0125C66.3509 28.0403 66.5271 28.0548 66.7072 28.0548C68.5261 28.0548 70.0001 26.5808 70.0001 24.7618C70.0001 22.9427 68.5261 21.4688 66.7071 21.4688C66.5271 21.4688 66.3509 21.4831 66.1793 21.511C64.6114 21.7635 63.4141 23.1228 63.4141 24.7618Z" fill="#D3A489"/>
<path d="M63.4141 24.7665C63.4141 26.4061 64.6114 27.7652 66.1795 28.0173C66.4704 26.9582 66.6173 25.8648 66.6163 24.7665C66.6163 23.6417 66.4645 22.5517 66.1795 21.5156C64.6113 21.7683 63.4141 23.1275 63.4141 24.7665Z" fill="#BF8E75"/>
<path d="M67.8853 24.7664C67.8806 25.0755 67.7545 25.3703 67.5343 25.5872C67.314 25.8041 67.0174 25.9257 66.7083 25.9257C66.3992 25.9257 66.1025 25.8041 65.8823 25.5872C65.662 25.3703 65.536 25.0755 65.5312 24.7664C65.5312 24.1165 66.0583 23.5898 66.7084 23.5898C67.3582 23.5898 67.8853 24.1165 67.8853 24.7664Z" fill="#BF8E75"/>
<path d="M65.9533 23.0145C65.9533 29.1114 61.4993 34.1694 55.6674 35.1083C55.0173 35.2144 54.3597 35.2672 53.701 35.2663C46.934 35.2663 41.4492 29.7816 41.4492 23.0145C41.4492 19.8129 42.5612 15.0064 44.5719 12.8237C46.8106 10.3932 50.1356 10.7622 53.701 10.7622C54.3713 10.7622 55.0276 10.8155 55.6674 10.9208C61.4993 11.8596 65.9533 16.9173 65.9533 23.0145Z" fill="#BF8E75"/>
<path d="M57.2423 31.8867V36.2323C57.2423 37.8232 56.1934 39.1679 54.7482 39.6145C54.4088 39.7195 54.0556 39.7728 53.7004 39.7725C51.7453 39.7725 50.1602 38.1875 50.1602 36.2323V31.8867H57.2423Z" fill="#BF8E75"/>
<path d="M57.2432 35.9545V36.2301C57.2432 37.8209 56.1943 39.1657 54.749 39.6122C53.4454 39.2116 52.4654 38.0778 52.2844 36.691C53.18 36.7445 54.0788 36.6988 54.9643 36.5548C55.7417 36.4297 56.505 36.2286 57.2432 35.9546V35.9545ZM65.9541 23.0121C65.9541 29.1089 61.5 34.167 55.6682 35.1058C49.8368 34.167 45.3828 29.1089 45.3828 23.0121C45.3828 19.2578 47.0714 15.8974 49.7316 13.6496C51.3904 12.2471 53.4278 11.2789 55.6682 10.918C61.1049 11.7931 65.3458 16.25 65.8938 21.7903C65.9338 22.1923 65.9541 22.6003 65.9541 23.0121Z" fill="#D3A489"/>
<path d="M53.6996 29.0475C52.6731 29.0475 51.6477 28.7908 50.7125 28.2764C50.6497 28.242 50.5943 28.1956 50.5495 28.1397C50.5047 28.0839 50.4713 28.0198 50.4513 27.951C50.4313 27.8822 50.4251 27.8102 50.433 27.739C50.4409 27.6679 50.4628 27.5989 50.4973 27.5362C50.5318 27.4735 50.5783 27.4182 50.6342 27.3734C50.69 27.3287 50.7542 27.2954 50.8229 27.2755C50.8917 27.2555 50.9637 27.2493 51.0348 27.2572C51.106 27.2652 51.1749 27.287 51.2375 27.3216C52.7789 28.1686 54.6198 28.1686 56.1616 27.3216C56.2242 27.2871 56.2931 27.2652 56.3642 27.2573C56.4353 27.2494 56.5072 27.2556 56.5759 27.2756C56.6446 27.2955 56.7087 27.3288 56.7645 27.3735C56.8204 27.4182 56.8668 27.4735 56.9012 27.5362C56.9358 27.5989 56.9577 27.6678 56.9656 27.7389C56.9735 27.8101 56.9673 27.8821 56.9474 27.9508C56.9275 28.0196 56.8942 28.0837 56.8494 28.1396C56.8047 28.1955 56.7493 28.242 56.6866 28.2764C55.7514 28.7908 54.725 29.0475 53.6996 29.0475Z" fill="#BF8E75"/>
<path d="M51.0924 22.3004C51.0924 23.0679 50.4701 23.6899 49.7021 23.6899C48.9347 23.6899 48.3125 23.0679 48.3125 22.3003C48.3125 21.5324 48.9347 20.9102 49.7021 20.9102C50.4701 20.9102 51.0923 21.5324 51.0923 22.3003L51.0924 22.3004ZM59.0905 22.3004C59.0905 23.0679 58.4681 23.6899 57.7007 23.6899C56.9328 23.6899 56.3105 23.0679 56.3105 22.3003C56.3105 21.5324 56.9328 20.9102 57.7007 20.9102C58.4681 20.9102 59.0903 21.5324 59.0903 22.3003L59.0905 22.3004Z" fill="#3D4159"/>
<path d="M50.8085 22.0524C50.8085 22.3815 50.5419 22.6485 50.2131 22.6485C50.0578 22.6445 49.9103 22.5799 49.8019 22.4686C49.6935 22.3573 49.6328 22.2081 49.6328 22.0528C49.6328 21.8974 49.6935 21.7482 49.8019 21.6369C49.9103 21.5257 50.0578 21.4611 50.2131 21.457C50.371 21.4571 50.5224 21.5199 50.6341 21.6315C50.7457 21.7431 50.8085 21.8946 50.8085 22.0524ZM58.875 22.0524C58.875 22.3815 58.6083 22.6485 58.2795 22.6485C58.1242 22.6445 57.9767 22.5799 57.8683 22.4686C57.7599 22.3573 57.6992 22.2081 57.6992 22.0528C57.6992 21.8974 57.7599 21.7482 57.8683 21.6369C57.9767 21.5257 58.1242 21.4611 58.2795 21.457C58.4374 21.4571 58.5888 21.5199 58.7005 21.6315C58.8121 21.7431 58.8749 21.8946 58.875 22.0524Z" fill="white"/>
<path d="M55.0904 25.8006H52.3105C52.1515 25.8006 51.999 25.7374 51.8865 25.625C51.7741 25.5126 51.7109 25.3601 51.7109 25.2011C51.7109 25.0421 51.7741 24.8896 51.8865 24.7772C51.999 24.6647 52.1515 24.6016 52.3105 24.6016H55.0902C55.2492 24.6016 55.4017 24.6647 55.5141 24.7772C55.6266 24.8896 55.6897 25.0421 55.6897 25.2011C55.6897 25.3601 55.6266 25.5126 55.5141 25.625C55.4017 25.7374 55.2492 25.8006 55.0902 25.8006H55.0904Z" fill="#BF8E75"/>
<path d="M57.7344 45.3047H63.0753V46.9394H57.7344V45.3047Z" fill="#BFD5DE"/>
<path d="M52.9844 7.26152C56.6959 7.52634 59.6759 10.5244 59.8645 14.2987L59.8997 15.0073H62.0349L63.1847 22.654L65.9699 21.792L65.596 14.2993C65.3984 10.3344 62.1192 7.2272 58.1512 7.24224L52.9844 7.26152Z" fill="#2A2F4F"/>
<path d="M65.3594 4.30469C68.3149 7.26027 68.3149 12.0523 65.3594 15.0079C62.4038 17.9633 57.6118 17.9633 54.6562 15.0079L65.3594 4.30469Z" fill="#3D4159"/>
<path d="M54.6573 15.0075H45.369L44.2187 22.6545L41.4336 21.7925L41.8068 14.2993C42.0045 10.3355 45.2836 7.2272 49.2521 7.24224L62.6671 7.29283L64.4408 10.4849" fill="#3D4159"/>
<path d="M54.4191 7.26152C50.7075 7.52634 47.7274 10.5244 47.5389 14.2987L47.5036 15.0073H45.369L44.2187 22.654L41.4336 21.792L41.8074 14.2993C42.0051 10.3344 45.2841 7.2272 49.2521 7.24224L54.4191 7.26152Z" fill="#2A2F4F"/>
<path d="M49.8368 64.5862V67.2105C45.3325 69.3208 40.3055 70.5004 35.0012 70.5004C29.6969 70.5004 24.6683 69.3206 20.1641 67.209V64.5862C20.1641 59.4074 23.6796 55.0517 28.4552 53.7747C28.6303 53.7274 28.8066 53.6845 28.9839 53.6461C29.4639 53.5425 29.9503 53.4709 30.4398 53.4319C30.7445 53.407 31.05 53.3946 31.3557 53.3945H38.6441C39.4594 53.3945 40.2526 53.4805 41.0185 53.6461C41.0627 53.6546 41.107 53.6647 41.1497 53.6748C41.2785 53.7049 41.4067 53.7363 41.5339 53.7705C41.5385 53.7716 41.5396 53.7716 41.5439 53.7732C42.7867 54.1057 43.9624 54.6513 45.0186 55.386C47.9312 57.4064 49.8368 60.7731 49.8368 64.5862Z" fill="#3D4159"/>
<path d="M41.5686 53.6445L41.5412 53.7717L37.9716 70.3733C37.7864 70.3889 37.6011 70.4032 37.4157 70.4161C37.1529 70.4336 36.89 70.4484 36.6269 70.4604C36.0868 70.486 35.5443 70.4988 34.9985 70.4988C34.4383 70.4988 33.8829 70.486 33.3302 70.4588C33.0802 70.4475 32.8298 70.4332 32.5798 70.4145C32.3935 70.4021 32.2073 70.3884 32.0212 70.3733L28.4524 53.7732L28.4258 53.6445H41.5686Z" fill="#66BAED"/>
<path d="M38.0047 57.4336L35.0001 62.2518L31.9961 57.4336" fill="#3D4159"/>
<path d="M37.4179 70.4163C37.1551 70.4338 36.8921 70.4486 36.629 70.4606C36.089 70.4861 35.5465 70.499 35.0007 70.499C34.4404 70.499 33.8851 70.4861 33.3323 70.4589C33.0824 70.4477 32.832 70.4334 32.582 70.4146L35.0007 60.9961L37.4179 70.4163Z" fill="#3D4159"/>
<path d="M34.9973 57.974L29.9585 60.774L28.4258 53.6448L31.5564 51.8008M34.9973 57.974L40.0357 60.774L41.5683 53.6448L38.4377 51.8008" fill="#2BA1CF"/>
<path d="M41.7599 63.2661H43.3584L40.5669 70.0572C39.2627 70.2663 37.9476 70.4009 36.6281 70.4604L41.5324 53.7689L41.5698 53.6445L45.0172 54.7703L41.7599 63.2661ZM33.3314 70.4588C32.0109 70.3978 30.695 70.2614 29.3901 70.0502L26.6012 63.2661H28.1997L24.9414 54.7703L28.3897 53.6445L28.4272 53.7689L33.3314 70.4588Z" fill="#2A2F4F"/>
<path d="M38.9903 49.0822V53.9822C38.9903 55.7765 37.8073 57.2927 36.1779 57.7963C35.7951 57.9149 35.3967 57.9751 34.996 57.9748C32.7908 57.9748 31.0039 56.1872 31.0039 53.982V49.082L38.9903 49.0822Z" fill="#EAB599"/>
<path d="M38.9911 53.6746V53.9854C38.9911 55.7792 37.808 57.2954 36.1786 57.7997C34.7084 57.3473 33.6028 56.0694 33.3989 54.505C34.4087 54.5655 35.4221 54.5141 36.4206 54.3518C37.2974 54.2105 38.1583 53.9836 38.9909 53.6746H38.9911ZM24.0443 41.0538C24.0443 42.9021 22.6937 44.4349 20.9253 44.7195C20.7288 44.7511 20.5301 44.767 20.331 44.7671C18.2797 44.7671 16.6172 43.105 16.6172 41.0538C16.6172 39.0026 18.2791 37.3398 20.331 37.3398C20.5334 37.3398 20.732 37.3564 20.9253 37.388C22.6937 37.6726 24.0443 39.2055 24.0443 41.0538Z" fill="#F6CAAE"/>
<path d="M24.0449 41.0526C24.0449 42.9009 22.6942 44.4336 20.9259 44.7183C20.5983 43.5239 20.4327 42.2909 20.4336 41.0524C20.4336 39.7837 20.605 38.5546 20.9259 37.3867C22.6942 37.6714 24.0449 39.2043 24.0449 41.0526Z" fill="#EAB599"/>
<path d="M21.6582 41.0538C21.6582 41.7865 21.0637 42.3808 20.331 42.3808C19.5978 42.3808 19.0039 41.7865 19.0039 41.0537C19.0039 40.8794 19.0381 40.7068 19.1048 40.5458C19.1715 40.3847 19.2692 40.2384 19.3925 40.1151C19.5157 39.9919 19.6621 39.8941 19.8231 39.8275C19.9841 39.7608 20.1567 39.7265 20.331 39.7266C21.0638 39.7266 21.6582 40.3206 21.6582 41.0538Z" fill="#EAB599"/>
<path d="M45.9531 41.0538C45.9531 42.9021 47.3039 44.4349 49.0721 44.7195C49.2649 44.7504 49.4641 44.7671 49.6665 44.7671C51.7179 44.7671 53.3804 43.105 53.3804 41.0538C53.3804 39.0026 51.7183 37.3398 49.6665 37.3398C49.4642 37.3398 49.2649 37.3564 49.0721 37.388C47.3038 37.6726 45.9531 39.2055 45.9531 41.0538Z" fill="#F6CAAE"/>
<path d="M45.9531 41.0526C45.9531 42.9009 47.3039 44.4336 49.0721 44.7183C49.3998 43.5239 49.5654 42.2909 49.5645 41.0524C49.5645 39.7837 49.3931 38.5546 49.0721 37.3867C47.3038 37.6714 45.9531 39.2043 45.9531 41.0526Z" fill="#EAB599"/>
<path d="M48.8153 33.8165V39.0775C48.8153 45.953 43.7925 51.6563 37.2161 52.7147L37.1488 52.726C36.4492 52.8381 35.7314 52.8932 34.9986 52.8932C27.3686 52.8932 21.1836 46.7076 21.1836 39.0781V33.8165C21.1836 32.2101 21.4576 30.6661 21.9638 29.2317C23.8533 23.8548 28.9766 20 34.9986 20H34.9997C35.7314 20 36.4503 20.0566 37.1508 20.1671C43.7593 21.1994 48.8153 26.9182 48.8153 33.8165Z" fill="#EAB599"/>
<path d="M50.9941 41.0538C50.9941 41.7865 50.4002 42.3808 49.667 42.3808C48.9342 42.3808 48.3398 41.7865 48.3398 41.0537C48.3398 40.3205 48.9342 39.7266 49.667 39.7266C49.8413 39.7265 50.0139 39.7608 50.1749 39.8275C50.3359 39.8941 50.4823 39.9919 50.6055 40.1151C50.7288 40.2384 50.8265 40.3847 50.8932 40.5458C50.9599 40.7068 50.9942 40.8795 50.9941 41.0538Z" fill="#EAB599"/>
<path d="M48.8136 33.8174V39.0784C48.8136 45.9534 43.7914 51.6572 37.215 52.7156L37.1472 52.7269C30.5393 51.6939 25.4844 45.9758 25.4844 39.0785V33.8176C25.4844 26.919 30.5402 21.2003 37.1498 20.168C43.7582 21.2003 48.8136 26.9191 48.8136 33.8174Z" fill="#F6CAAE"/>
<path d="M32.0563 38.274C32.0563 39.1395 31.3545 39.8413 30.4894 39.8413C29.6237 39.8413 28.9219 39.1395 28.9219 38.2738C28.9219 37.4087 29.6237 36.707 30.4894 36.707C31.3545 36.707 32.0562 37.4087 32.0562 38.2738L32.0563 38.274ZM41.0759 38.274C41.0759 39.1395 40.3743 39.8413 39.5086 39.8413C38.6428 39.8413 37.9411 39.1395 37.9411 38.2738C37.9411 37.4087 38.6428 36.707 39.5086 36.707C40.3743 36.707 41.0759 37.4087 41.0759 38.2738V38.274Z" fill="#3D4159"/>
<path d="M31.7377 37.9961C31.7376 38.1742 31.6668 38.345 31.5408 38.4708C31.4148 38.5967 31.2439 38.6674 31.0658 38.6673C30.8877 38.6673 30.7169 38.5965 30.591 38.4705C30.4651 38.3445 30.3945 38.1736 30.3945 37.9955C30.3946 37.9073 30.412 37.82 30.4458 37.7385C30.4795 37.6571 30.529 37.5831 30.5914 37.5207C30.6538 37.4584 30.7279 37.4089 30.8094 37.3752C30.8908 37.3415 30.9782 37.3242 31.0664 37.3242C31.1546 37.3243 31.2419 37.3417 31.3233 37.3754C31.4048 37.4092 31.4788 37.4587 31.5412 37.5211C31.6035 37.5835 31.6529 37.6575 31.6866 37.739C31.7204 37.8205 31.7377 37.9079 31.7377 37.9961ZM40.8337 37.9961C40.8337 38.0842 40.8162 38.1716 40.7825 38.253C40.7487 38.3345 40.6992 38.4085 40.6368 38.4708C40.5744 38.5332 40.5004 38.5826 40.4189 38.6163C40.3374 38.65 40.25 38.6674 40.1619 38.6673C40.0737 38.6673 39.9863 38.6499 39.9049 38.6161C39.8234 38.5823 39.7494 38.5328 39.6871 38.4705C39.6247 38.4081 39.5753 38.334 39.5416 38.2525C39.5079 38.171 39.4905 38.0837 39.4906 37.9955C39.4906 37.8174 39.5615 37.6466 39.6875 37.5207C39.8135 37.3948 39.9843 37.3241 40.1624 37.3242C40.3405 37.3243 40.5113 37.3951 40.6372 37.5211C40.7631 37.6471 40.8338 37.8179 40.8337 37.9961Z" fill="white"/>
<path d="M36.5669 41.6061H33.4319C33.2549 41.6025 33.0864 41.5297 32.9626 41.4033C32.8387 41.2769 32.7693 41.107 32.7693 40.93C32.7693 40.753 32.8387 40.5831 32.9626 40.4567C33.0864 40.3303 33.2549 40.2575 33.4319 40.2539H36.5669C36.9401 40.2539 37.2429 40.5561 37.2429 40.93C37.2427 41.1092 37.1714 41.2811 37.0447 41.4078C36.9179 41.5345 36.7461 41.6058 36.5669 41.6061ZM34.9994 45.8833C33.8427 45.8833 32.6853 45.5935 31.631 45.0134C31.5603 44.9745 31.4979 44.9222 31.4474 44.8592C31.397 44.7963 31.3594 44.724 31.3369 44.6465C31.3144 44.569 31.3073 44.4878 31.3162 44.4076C31.3251 44.3274 31.3497 44.2498 31.3886 44.1791C31.4672 44.0363 31.5992 43.9305 31.7558 43.8849C31.9123 43.8394 32.0805 43.8578 32.2234 43.9362C33.9617 44.8921 36.0371 44.8921 37.7755 43.9362C37.8462 43.8973 37.9239 43.8727 38.0042 43.8639C38.0844 43.855 38.1656 43.8621 38.2431 43.8847C38.3207 43.9072 38.393 43.9448 38.4559 43.9954C38.5189 44.0459 38.5713 44.1083 38.6101 44.1791C38.649 44.2498 38.6736 44.3274 38.6825 44.4076C38.6914 44.4878 38.6844 44.569 38.6619 44.6465C38.6394 44.724 38.6018 44.7963 38.5513 44.8592C38.5008 44.9222 38.4385 44.9745 38.3677 45.0134C37.3129 45.5933 36.1562 45.8833 34.9994 45.8833Z" fill="#EAB599"/>
<path d="M48.8157 29.0418V34.431H46.2441V30.2105L27.6825 26.7615L23.755 26.0314V34.431H21.1836V29.0414C21.1836 22.8975 26.163 17.918 32.3058 17.918H37.6933C37.8396 17.918 37.9859 17.9207 38.1323 17.9281C44.0706 18.1567 48.8155 23.0444 48.8155 29.042L48.8157 29.0418Z" fill="#2A2F4F"/>
<path d="M48.8168 29.0434V34.4326H46.2452V30.2121L27.6836 26.7631C28.7062 21.8508 32.968 18.1289 38.1334 17.9297C44.0717 18.1583 48.8166 23.046 48.8166 29.0436L48.8168 29.0434Z" fill="#3D4159"/>
</g>
<defs>
<linearGradient id="paint0_linear_3367_88188" x1="0" y1="0.5" x2="74.0689" y2="5.10889" gradientUnits="userSpaceOnUse">
<stop stop-color="#0099FF"/>
<stop offset="1" stop-color="#12A1FF"/>
</linearGradient>
<clipPath id="clip0_3367_88188">
<rect width="70" height="70" fill="white" transform="translate(0 0.5)"/>
</clipPath>
</defs>
</svg>
