<svg width="92" height="113" viewBox="0 0 92 113" fill="none" xmlns="http://www.w3.org/2000/svg">
<g clip-path="url(#clip0_4133_1088)">
<path d="M39.6764 97.4844L46.0185 97.7564C46.1411 97.4387 46.2589 97.1186 46.3694 96.7888C46.6241 96.0186 46.8284 95.2436 46.9894 94.4662L41.5293 91.2362C41.5557 90.8535 41.5605 90.4757 41.5581 90.0954L47.1841 87.159C47.0087 86.023 46.7467 84.9062 46.3886 83.8231L40.0393 83.7606C39.8711 83.4212 39.6884 83.0891 39.4962 82.7641L42.9039 77.3993C42.1926 76.5063 41.4091 75.6712 40.5488 74.9058L35.019 78.0299C34.7041 77.8229 34.3797 77.6231 34.0505 77.4378L34.3244 71.0837C34.0072 70.9634 33.6852 70.8454 33.3583 70.7371C32.5893 70.4796 31.8155 70.2774 31.0392 70.1137L27.8141 75.5821C27.4344 75.558 27.0547 75.5484 26.6774 75.5532L23.7454 69.9164C22.6111 70.0921 21.496 70.3568 20.4121 70.7131L20.3497 77.0719C20.0108 77.2404 19.6792 77.4233 19.3547 77.6159L13.9979 74.203C13.1087 74.9154 12.2748 75.7024 11.5082 76.5593L14.6276 82.0998C14.4185 82.4151 14.2214 82.7377 14.034 83.0698L7.68945 82.7978C7.56689 83.1131 7.44913 83.438 7.34098 83.763C7.08384 84.5356 6.88197 85.3106 6.71855 86.088L12.1787 89.3204C12.1522 89.7007 12.145 90.0809 12.1498 90.4588L6.52148 93.3976C6.69452 94.5336 6.95887 95.6504 7.31695 96.7335L13.6663 96.7961C13.8345 97.1354 14.0172 97.4676 14.2094 97.7925L10.8016 103.157C11.513 104.048 12.2988 104.881 13.1544 105.651L18.6842 102.527C18.999 102.736 19.3211 102.934 19.6527 103.121L19.3812 109.471C19.6984 109.593 20.0204 109.714 20.3473 109.822C21.1163 110.082 21.8901 110.282 22.6664 110.445L25.8915 104.977C26.2736 105.001 26.6509 105.008 27.0282 105.003L29.9602 110.64C31.0969 110.465 32.2096 110.2 33.2934 109.841L33.3559 103.482C33.6948 103.316 34.024 103.133 34.3485 102.938L39.7052 106.354C40.5944 105.641 41.4284 104.854 42.195 103.997L39.0732 98.4568C39.2919 98.1391 39.4914 97.8166 39.6764 97.4844ZM23.3297 100.876C17.4826 98.9261 14.3224 92.6009 16.2738 86.7402C18.2204 80.8892 24.5409 77.7242 30.3831 79.6737C36.2326 81.6257 39.3928 87.9557 37.4438 93.8092C35.4924 99.6626 29.1743 102.828 23.3297 100.876Z" fill="url(#paint0_linear_4133_1088)"/>
<path d="M61.9336 34.9231L64.7069 34.0422C64.594 32.9374 64.4282 31.8327 64.1974 30.7328L61.2871 30.7304C60.9964 29.4499 60.6238 28.1791 60.148 26.9131C60.023 26.5737 59.8813 26.2392 59.7395 25.9022L62.1066 24.2126C61.6524 23.1777 61.1478 22.1788 60.6022 21.2161L57.8385 22.1114C56.9613 20.6385 55.9784 19.2593 54.8897 17.9861L56.6081 15.6563C55.8607 14.8211 55.0724 14.0293 54.2481 13.2783L51.9073 14.98C50.6288 13.8656 49.2542 12.8667 47.8146 11.9882L48.7351 9.22759C47.769 8.66439 46.7764 8.15173 45.7575 7.68962L44.0464 10.0459C42.4963 9.38163 40.8909 8.8425 39.2399 8.45018L39.2664 5.55234C38.1777 5.31166 37.0746 5.13114 35.9595 5.00839L35.0631 7.76182C33.3929 7.6126 31.6986 7.60779 29.9971 7.74979L29.1223 4.97229C28.0193 5.08541 26.9162 5.25389 25.8131 5.48254L25.8083 8.39242C24.5322 8.68846 23.2609 9.06634 22.0016 9.53567C21.6579 9.66323 21.3239 9.80764 20.9898 9.94483L19.3003 7.57409C18.2694 8.03139 17.272 8.53442 16.3107 9.08318L17.2047 11.8486C15.7316 12.7247 14.3569 13.7115 13.0856 14.8043L10.7569 13.0834C9.92295 13.8319 9.12989 14.6189 8.38008 15.4445L10.0816 17.7912C8.96406 19.074 7.96913 20.4483 7.09195 21.89L4.33545 20.9682C3.77549 21.9357 3.26361 22.9322 2.80459 23.9527L5.15495 25.6639C4.49406 27.2188 3.95093 28.8265 3.56161 30.4776L0.665718 30.4536C0.432605 31.5439 0.247557 32.6486 0.127395 33.763L2.87669 34.6607C2.72528 36.3359 2.72288 38.0327 2.86227 39.7344L0.09375 40.6105C0.204298 41.7152 0.372524 42.8175 0.603234 43.9247H3.51354C3.80674 45.2027 4.17683 46.4784 4.65027 47.7395C4.78004 48.0813 4.91943 48.4159 5.05882 48.7528L2.69404 50.4424C3.14825 51.4774 3.65053 52.4738 4.19846 53.439L6.96218 52.5412C7.83695 54.0142 8.82227 55.3957 9.91334 56.6665L8.19503 58.9964C8.94243 59.8339 9.72829 60.6282 10.5526 61.3791L12.8981 59.6751C14.1767 60.7943 15.5465 61.7883 16.9884 62.6644L16.068 65.4275C17.0341 65.9858 18.029 66.5033 19.0432 66.963L20.7567 64.6091C22.3092 65.2758 23.9145 65.8174 25.5608 66.2073L25.5391 69.1075C26.6278 69.3458 27.7285 69.5263 28.8436 69.6515L29.7376 66.8932C31.4102 67.0449 33.1069 67.0497 34.8036 66.9101L35.6807 69.6852C36.7838 69.572 37.8845 69.4036 38.99 69.1749V66.2602C40.2661 65.9666 41.5374 65.5959 42.7991 65.1218C43.1404 64.9894 43.4744 64.8498 43.8109 64.7126L45.5003 67.081C46.5313 66.6212 47.5311 66.1206 48.4924 65.5743L47.596 62.804C49.0667 61.9279 50.4462 60.9435 51.7151 59.8484L54.039 61.5693C54.8753 60.8232 55.6708 60.0361 56.4182 59.2106L54.7191 56.8615C55.8342 55.581 56.8292 54.2067 57.7063 52.7674L60.4628 53.6893C61.0228 52.7217 61.5371 51.7253 61.9937 50.7048L59.6457 48.9935C60.309 47.4387 60.8474 45.8285 61.2415 44.1774L64.1326 44.2015C64.3705 43.1136 64.5507 42.0088 64.6781 40.8969L61.9264 39.9967C62.073 38.3216 62.073 36.6247 61.9336 34.9231ZM50.4582 30.5547C51.3979 33.0626 51.78 35.6451 51.6694 38.1627C49.9031 38.9377 48.3193 38.6585 46.923 37.3251C46.9255 35.4117 46.5505 33.4694 45.7527 31.604C44.1353 27.8205 41.0448 24.9876 37.3222 23.6446C36.5051 21.8635 36.743 20.2678 38.0407 18.8598C43.5657 20.559 48.2713 24.7108 50.4582 30.5547ZM32.4051 47.7853C28.2187 47.7853 24.4505 45.2942 22.8018 41.4408C20.538 36.141 23.0013 29.9842 28.2908 27.717C29.6006 27.1562 30.98 26.8698 32.3907 26.8698C36.5772 26.8698 40.3454 29.3609 41.994 33.2142C44.2579 38.5141 41.7946 44.6684 36.5027 46.9381C35.1953 47.4989 33.8158 47.7853 32.4051 47.7853ZM25.6304 19.2329C28.1851 18.2749 30.8166 17.8995 33.3785 18.0318C34.1211 19.8009 33.8038 21.3822 32.434 22.7781C32.4196 22.7781 32.4076 22.7757 32.3931 22.7757C30.4273 22.7757 28.5071 23.1705 26.6855 23.9503C22.8475 25.5941 20.0838 28.711 18.7572 32.3598C16.9884 33.142 15.4023 32.8676 14.0036 31.5367C15.7243 26.0635 19.8483 21.4062 25.6304 19.2329ZM14.3401 44.1052C13.3788 41.5371 13.0015 38.892 13.1385 36.3166C14.9024 35.5344 16.4838 35.7992 17.88 37.1133C17.8488 39.0941 18.2165 41.1135 19.0456 43.051C20.6822 46.8803 23.828 49.7324 27.6131 51.0562C28.3317 52.806 28.0072 54.3728 26.6446 55.7567C21.1677 54.0383 16.5102 49.9057 14.3401 44.1052ZM39.1654 55.415C36.6492 56.3585 34.0634 56.7411 31.54 56.628C30.7277 54.859 30.9536 53.2753 32.2249 51.8721C32.285 51.8721 32.3451 51.8793 32.4051 51.8793C34.371 51.8793 36.2912 51.4846 38.1128 50.7048C42.0229 49.0272 44.825 45.8261 46.118 42.0859C47.8771 41.3253 49.4536 41.6141 50.8451 42.9499C49.1556 48.4929 45.0077 53.2199 39.1654 55.415Z" fill="url(#paint1_linear_4133_1088)"/>
<path d="M87.1924 82.8433L91.213 82.2391C91.612 80.4412 91.7874 78.6337 91.7441 76.8526L87.9134 75.4855C87.8341 74.6792 87.7019 73.885 87.5169 73.1028L90.6963 70.5732C90.1484 68.845 89.3962 67.1891 88.4589 65.6415L84.4648 66.3756C83.9961 65.721 83.4891 65.1 82.9363 64.5079L84.4263 60.7267C83.1094 59.5185 81.6362 58.4595 80.0236 57.5786L76.9307 60.2141C76.3923 59.971 75.8396 59.752 75.2676 59.557C75.0706 59.4896 74.8711 59.4319 74.6764 59.3693L74.0756 55.345C72.278 54.9455 70.4732 54.7698 68.6948 54.8107L67.3274 58.6496C66.5247 58.7291 65.7316 58.8614 64.9506 59.0444L62.4248 55.8625C60.6993 56.4089 59.0458 57.1622 57.5006 58.1033L58.2335 62.1059C57.5823 62.5728 56.9574 63.0831 56.3686 63.6342L52.5908 62.1444C51.3867 63.4609 50.3293 64.9363 49.4473 66.5537L52.0789 69.6513C51.8362 70.1905 51.6151 70.744 51.4228 71.3169C51.3555 71.5142 51.2978 71.7116 51.2378 71.909L47.2171 72.5107C46.8206 74.3086 46.6428 76.1161 46.686 77.8972L50.5168 79.2643C50.5985 80.0682 50.7307 80.8624 50.9109 81.6447L47.7338 84.1743C48.2794 85.9024 49.0316 87.5607 49.9712 89.1059L53.9654 88.3718C54.434 89.0241 54.9411 89.6498 55.4939 90.2371L54.0039 94.0207C55.3208 95.2265 56.794 96.2855 58.4042 97.1664L61.4971 94.5309C62.0354 94.774 62.5906 94.9954 63.1626 95.1904C63.3596 95.2578 63.5567 95.3155 63.7538 95.3733L64.3546 99.4024C66.1522 99.8019 67.9546 99.9776 69.7354 99.9343L71.1028 96.0954C71.9055 96.0135 72.701 95.8836 73.4796 95.6982L76.0078 98.8801C77.7333 98.3313 79.3868 97.5804 80.932 96.6393L80.199 92.6391C80.8503 92.1698 81.4728 91.6595 82.0639 91.1084L85.8394 92.6006C87.0458 91.2817 88.1033 89.8063 88.9828 88.1913L86.3537 85.0961C86.594 84.5545 86.8175 84.001 87.0122 83.4305C87.0747 83.238 87.1324 83.0406 87.1924 82.8433ZM83.6525 82.2873C80.9392 90.2732 72.2804 94.5454 64.3089 91.828C56.0274 89.0096 51.7472 79.7577 55.1286 71.5311C58.0245 64.4862 65.8662 60.6257 73.2057 62.6306C81.7635 64.9748 86.4643 74.0053 83.6525 82.2873Z" fill="url(#paint2_linear_4133_1088)"/>
<path d="M69.2145 63.408C61.5242 63.408 55.2686 69.673 55.2686 77.3749C55.2686 85.0744 61.5242 91.3418 69.2145 91.3418C76.9024 91.3418 83.1604 85.0768 83.1604 77.3749C83.1604 69.673 76.9024 63.408 69.2145 63.408ZM69.2145 87.5053C63.6366 87.5053 59.0969 82.9612 59.0969 77.3725C59.0969 71.7862 63.6342 67.2397 69.2145 67.2397C74.7924 67.2397 79.3321 71.7838 79.3321 77.3725C79.3321 82.9612 74.7924 87.5053 69.2145 87.5053Z" fill="url(#paint3_linear_4133_1088)"/>
</g>
<defs>
<linearGradient id="paint0_linear_4133_1088" x1="6.52148" y1="69.9164" x2="51.1888" y2="99.2057" gradientUnits="userSpaceOnUse">
<stop stop-color="#3D9FFD"/>
<stop offset="1" stop-color="#3EC3FC"/>
</linearGradient>
<linearGradient id="paint1_linear_4133_1088" x1="0.09375" y1="4.97229" x2="71.072" y2="51.5126" gradientUnits="userSpaceOnUse">
<stop stop-color="#3D9FFD"/>
<stop offset="1" stop-color="#3EC3FC"/>
</linearGradient>
<linearGradient id="paint2_linear_4133_1088" x1="46.6797" y1="54.8049" x2="96.1875" y2="87.2704" gradientUnits="userSpaceOnUse">
<stop stop-color="#3D9FFD"/>
<stop offset="1" stop-color="#3EC3FC"/>
</linearGradient>
<linearGradient id="paint3_linear_4133_1088" x1="55.2686" y1="63.408" x2="85.9074" y2="83.4985" gradientUnits="userSpaceOnUse">
<stop stop-color="#3D9FFD"/>
<stop offset="1" stop-color="#3EC3FC"/>
</linearGradient>
<clipPath id="clip0_4133_1088">
<rect width="91.8506" height="112.5" fill="white"/>
</clipPath>
</defs>
</svg>
