<svg width="150" height="32" viewBox="0 0 150 32" fill="none" xmlns="http://www.w3.org/2000/svg">
<mask id="mask0_3870_1066" style="mask-type:luminance" maskUnits="userSpaceOnUse" x="0" y="0" width="149" height="32">
<path d="M148.827 0H0V32H148.827V0Z" fill="white"/>
</mask>
<g mask="url(#mask0_3870_1066)">
<path d="M36.693 24.5333C34.2664 24.5333 32.3997 23.8667 31.1197 22.5067C29.8397 21.1467 29.1997 19.2267 29.1997 16.7467C29.1997 15.52 29.3864 14.4 29.7864 13.44C30.1864 12.48 30.7197 11.6533 31.3864 10.9867C32.053 10.32 32.8797 9.81333 33.813 9.46667C34.7464 9.12 35.7597 8.96 36.853 8.96C37.493 8.96 38.053 9.01333 38.5864 9.09333C39.093 9.2 39.573 9.30667 39.9464 9.41333C40.3464 9.54667 40.6664 9.65333 40.933 9.78667C41.1997 9.92 41.3864 10.0267 41.493 10.08L40.5064 12.8C40.053 12.56 39.5197 12.3467 38.8797 12.1867C38.2664 12.0267 37.573 11.92 36.7997 11.92C36.293 11.92 35.7597 12 35.2797 12.1867C34.773 12.3467 34.3464 12.64 33.9464 13.0133C33.573 13.3867 33.253 13.8933 33.013 14.48C32.773 15.0933 32.6664 15.8133 32.6664 16.6933C32.6664 17.3867 32.7464 18.0267 32.9064 18.6133C33.0664 19.2 33.3064 19.7333 33.653 20.16C33.9997 20.5867 34.4264 20.9333 34.9864 21.1733C35.5464 21.4133 36.1864 21.5467 36.9864 21.5467C37.4664 21.5467 37.9197 21.52 38.3197 21.4667C38.7197 21.4133 39.0664 21.3333 39.3597 21.2533C39.653 21.1733 39.9197 21.0933 40.1597 20.9867C40.3997 20.88 40.613 20.8 40.7997 20.6933L41.733 23.3867C41.253 23.68 40.5864 23.9467 39.7064 24.16C38.8264 24.4 37.813 24.5333 36.693 24.5333Z" fill="#464D56"/>
<path d="M55.4665 9.27997V12.16H50.9332V24.24H47.5465V12.1333H43.0132V9.27997H55.4665Z" fill="#464D56"/>
<path d="M66.7999 24.2133C66.3733 23.3867 65.9199 22.5333 65.4133 21.68C64.9066 20.8267 64.3466 20.1067 63.6799 19.52C63.4666 19.7333 63.2266 20.0533 62.9066 20.4533C62.5866 20.8533 62.2933 21.28 61.9733 21.7067C61.6533 22.16 61.3599 22.6133 61.0933 23.0933C60.8266 23.5733 60.6133 23.9467 60.4799 24.2133H56.6133C57.2533 23.04 57.9999 21.84 58.8533 20.5867C59.7066 19.3333 60.6666 18.0267 61.7333 16.6133L56.8266 9.22667H60.9066L63.8399 13.6L66.7733 9.28H70.6399L65.7599 16.5067C67.0399 18.1067 68.0799 19.5733 68.9066 20.88C69.7333 22.2133 70.3733 23.3333 70.8533 24.24H66.7999V24.2133Z" fill="#464D56"/>
<path d="M72.7998 24.2133V9.27997H82.8531V12.1066H76.1865V15.2266H82.1065V18.0533H76.1865V24.2133H72.7998Z" fill="url(#paint0_linear_3870_1066)"/>
<path d="M84.2666 18.64C84.2666 17.6266 84.4266 16.7466 84.7199 16C85.0399 15.2533 85.4399 14.6133 85.9466 14.1066C86.4533 13.6 87.0399 13.2266 87.6799 12.96C88.3466 12.6933 89.0133 12.56 89.7066 12.56C91.3333 12.56 92.6133 13.04 93.5466 14.0266C94.4799 15.0133 94.9599 16.4533 94.9599 18.3733C94.9599 18.56 94.9599 18.7733 94.9333 18.9866C94.9066 19.2 94.9066 19.4133 94.8799 19.5733H87.5733C87.6533 20.24 87.9466 20.7733 88.5066 21.1466C89.0666 21.5466 89.7866 21.7333 90.7199 21.7333C91.3066 21.7333 91.8933 21.68 92.4533 21.5733C93.0133 21.4666 93.4933 21.3333 93.8399 21.1733L94.2666 23.7866C94.1066 23.8666 93.8666 23.9466 93.5733 24.0533C93.2799 24.1333 92.9599 24.2133 92.6133 24.2933C92.2666 24.3466 91.8933 24.4 91.4666 24.4533C91.0666 24.5066 90.6666 24.5066 90.2666 24.5066C89.2533 24.5066 88.3466 24.3466 87.5999 24.0533C86.8533 23.76 86.2133 23.3333 85.7066 22.8C85.1999 22.2666 84.8533 21.6533 84.6133 20.9333C84.3733 20.2133 84.2666 19.4666 84.2666 18.64ZM91.8399 17.4133C91.8133 17.1466 91.7866 16.88 91.7066 16.6133C91.6266 16.3466 91.4933 16.1333 91.3333 15.92C91.1733 15.7066 90.9599 15.5466 90.6933 15.4133C90.4533 15.28 90.1333 15.2266 89.7599 15.2266C89.3866 15.2266 89.0933 15.28 88.8266 15.4133C88.5599 15.5466 88.3466 15.7066 88.1866 15.8933C87.9999 16.1066 87.8666 16.32 87.7866 16.5866C87.6799 16.8533 87.6266 17.12 87.5733 17.3866H91.8399V17.4133Z" fill="url(#paint1_linear_3870_1066)"/>
<path d="M96.9062 18.64C96.9062 17.6266 97.0663 16.7466 97.3596 16C97.6796 15.2533 98.0796 14.6133 98.5863 14.1066C99.0929 13.6 99.6796 13.2266 100.32 12.96C100.986 12.6933 101.653 12.56 102.346 12.56C103.973 12.56 105.253 13.04 106.186 14.0266C107.12 15.0133 107.6 16.4533 107.6 18.3733C107.6 18.56 107.6 18.7733 107.573 18.9866C107.546 19.2 107.546 19.4133 107.52 19.5733H100.213C100.293 20.24 100.586 20.7733 101.146 21.1466C101.706 21.5466 102.426 21.7333 103.36 21.7333C103.946 21.7333 104.533 21.68 105.093 21.5733C105.653 21.4666 106.133 21.3333 106.48 21.1733L106.906 23.7866C106.746 23.8666 106.506 23.9466 106.213 24.0533C105.92 24.1333 105.6 24.2133 105.253 24.2933C104.906 24.3466 104.533 24.4 104.106 24.4533C103.706 24.5066 103.306 24.5066 102.906 24.5066C101.893 24.5066 100.986 24.3466 100.24 24.0533C99.4929 23.76 98.8529 23.3333 98.3462 22.8C97.8396 22.2666 97.4929 21.6533 97.2529 20.9333C97.0129 20.2133 96.9062 19.4666 96.9062 18.64ZM104.48 17.4133C104.453 17.1466 104.426 16.88 104.346 16.6133C104.266 16.3466 104.133 16.1333 103.973 15.92C103.813 15.7066 103.6 15.5466 103.333 15.4133C103.093 15.28 102.773 15.2266 102.4 15.2266C102.026 15.2266 101.733 15.28 101.466 15.4133C101.2 15.5466 100.986 15.7066 100.826 15.8933C100.64 16.1066 100.506 16.32 100.426 16.5866C100.32 16.8533 100.266 17.12 100.213 17.3866H104.48V17.4133Z" fill="url(#paint2_linear_3870_1066)"/>
<path d="M120.133 23.8667C119.84 23.9467 119.52 24.0267 119.147 24.1067C118.773 24.1867 118.373 24.2667 117.973 24.32C117.573 24.3733 117.147 24.4267 116.72 24.4533C116.293 24.48 115.893 24.5067 115.493 24.5067C114.56 24.5067 113.707 24.3733 112.987 24.1067C112.24 23.84 111.627 23.44 111.12 22.9333C110.613 22.4267 110.24 21.8133 109.973 21.0667C109.707 20.3467 109.573 19.52 109.573 18.6133C109.573 17.68 109.68 16.8533 109.92 16.1333C110.16 15.3867 110.48 14.7733 110.907 14.24C111.333 13.7333 111.867 13.3333 112.507 13.04C113.147 12.7733 113.84 12.64 114.667 12.64C115.12 12.64 115.52 12.6933 115.867 12.7733C116.213 12.8533 116.587 12.9867 116.933 13.1467V8L120.16 7.49333V23.8667H120.133ZM112.827 18.4533C112.827 19.44 113.04 20.24 113.493 20.8533C113.947 21.4667 114.613 21.76 115.493 21.76C115.787 21.76 116.053 21.76 116.293 21.7333C116.533 21.7067 116.747 21.68 116.907 21.6533V15.8133C116.693 15.68 116.453 15.5733 116.107 15.4933C115.787 15.4133 115.467 15.36 115.12 15.36C113.6 15.36 112.827 16.4 112.827 18.4533Z" fill="url(#paint3_linear_3870_1066)"/>
<path d="M19.0129 5.09333C18.9329 4.88 18.8795 4.64 18.8795 4.4V2.66666C19.7595 2.82666 20.5595 3.25333 21.1995 3.86666C21.8395 4.48 22.2662 5.30666 22.3995 6.18666H20.6662C20.4262 6.18666 20.1862 6.16 19.9729 6.05333C19.7595 5.97333 19.5462 5.84 19.3862 5.65333C19.2529 5.49333 19.1195 5.30666 19.0129 5.09333ZM20.6929 7.73333C20.2395 7.73333 19.8129 7.65333 19.4129 7.49333C19.0129 7.33333 18.6395 7.09333 18.3195 6.77333C17.9995 6.45333 17.7595 6.10666 17.5995 5.68C17.4395 5.28 17.3329 4.82666 17.3329 4.4V2.61334H4.15952C3.91952 2.61334 3.67952 2.66666 3.46619 2.74666C3.25286 2.82666 3.03952 2.96 2.87952 3.14666C2.71952 3.30666 2.58619 3.52 2.47952 3.73333C2.39952 3.94666 2.34619 4.18666 2.34619 4.42666V27.6C2.34619 28 2.45286 28.4 2.69286 28.72C2.93286 29.04 3.25286 29.28 3.62619 29.4133H20.1329C21.5195 29.4133 22.4529 28.6933 22.4529 27.6267V10.32C22.4529 10.2134 22.4795 10.1067 22.5062 10.0267C22.5329 9.92 22.6129 9.84002 22.6662 9.78669C22.7462 9.70669 22.8262 9.65333 22.9062 9.62666C22.9862 9.6 23.0662 9.57336 23.1729 9.57336H23.2529V7.73333H20.6929Z" fill="url(#paint4_linear_3870_1066)"/>
<path d="M15.5196 6.21333H9.33296C9.14629 6.24 8.95962 6.32003 8.82629 6.45336C8.69296 6.58669 8.61296 6.77336 8.61296 6.98669C8.61296 7.17336 8.69296 7.36003 8.82629 7.52003C8.95962 7.65336 9.11962 7.76 9.33296 7.76H15.5463C15.733 7.73333 15.9196 7.65336 16.053 7.52003C16.1863 7.38669 16.2663 7.20003 16.2663 6.98669C16.2663 6.80003 16.1863 6.61336 16.053 6.45336C15.893 6.32003 15.7063 6.21333 15.5196 6.21333ZM14.213 20.4267H6.74629C6.53296 20.4267 6.34629 20.5067 6.18629 20.64C6.05296 20.7734 5.94629 20.9867 5.94629 21.1734C5.94629 21.3867 6.02629 21.5734 6.18629 21.7067C6.31962 21.84 6.53296 21.92 6.74629 21.92H14.213C14.4263 21.92 14.613 21.84 14.773 21.7067C14.9063 21.5734 15.013 21.36 15.013 21.1734C15.013 20.96 14.933 20.7734 14.773 20.64C14.613 20.5067 14.4263 20.4267 14.213 20.4267ZM18.0796 17.2267H6.74629C6.55962 17.2533 6.37296 17.3333 6.23962 17.4667C6.10629 17.6 6.02629 17.7867 6.02629 18C6.02629 18.2133 6.10629 18.3733 6.23962 18.5333C6.37296 18.6667 6.53296 18.7734 6.74629 18.7734H18.1063C18.293 18.7467 18.4796 18.6667 18.613 18.5333C18.7463 18.4 18.8263 18.2133 18.8263 18C18.8263 17.7867 18.7463 17.6267 18.613 17.4667C18.4796 17.3333 18.293 17.2533 18.0796 17.2267ZM18.0796 13.92H6.74629C6.55962 13.9467 6.37296 14.0267 6.23962 14.16C6.10629 14.2933 6.02629 14.48 6.02629 14.6933C6.02629 14.88 6.10629 15.0667 6.23962 15.2267C6.37296 15.36 6.53296 15.4667 6.74629 15.4667H18.1063C18.293 15.44 18.4796 15.36 18.613 15.2267C18.7463 15.0933 18.8263 14.9067 18.8263 14.6933C18.8263 14.5067 18.7463 14.32 18.613 14.16C18.4796 14.0267 18.293 13.9467 18.0796 13.92ZM16.7196 20.2667C17.173 20.2667 17.5463 20.64 17.5463 21.0933C17.5463 21.5467 17.173 21.92 16.7196 21.92C16.2663 21.92 15.893 21.5467 15.893 21.0933C15.893 20.64 16.2663 20.2667 16.7196 20.2667Z" fill="white"/>
<path d="M20.6931 7.73333H23.2798C23.4398 7.73333 23.5731 7.68 23.7065 7.6C23.8398 7.52 23.9465 7.41333 23.9998 7.28C24.0531 7.17333 24.0798 7.06667 24.0798 6.96V6.90667C24.0531 5.68 23.6265 4.48 22.9065 3.49333V3.44L22.7731 3.25333C22.6665 3.12 22.5331 2.96 22.3998 2.82667C21.8665 2.26667 21.1998 1.84 20.4798 1.52C19.7598 1.22667 18.9865 1.06667 18.2131 1.06667H4.1598C3.2798 1.06667 2.42647 1.41333 1.78647 2.02667C1.17314 2.66667 0.799805 3.52 0.799805 4.4V27.5733C0.799805 29.44 2.3198 30.9067 3.65314 30.9067H20.1331C22.3731 30.9067 23.9998 29.4933 23.9998 27.5733V18.6667V10.32C23.9998 10.2133 23.9731 10.1333 23.9465 10.0267C23.9198 9.94666 23.8665 9.84 23.7865 9.78667C23.7065 9.70667 23.6265 9.65333 23.5465 9.62666C23.4665 9.6 23.3598 9.57333 23.2531 9.57333C23.1465 9.57333 23.0398 9.6 22.9598 9.62666C22.8531 9.65333 22.7731 9.73333 22.7198 9.78667C22.6398 9.86667 22.5865 9.94666 22.5598 10.0267C22.5331 10.1333 22.5065 10.2133 22.5065 10.32V18.6667V27.5733C22.5065 28.64 21.5731 29.36 20.1865 29.36H3.65314C3.2798 29.2533 2.93314 29.0133 2.7198 28.6667C2.4798 28.3467 2.37314 27.9467 2.37314 27.5467V4.4C2.37314 4.16 2.42647 3.92 2.50647 3.70667C2.58647 3.49333 2.7198 3.28 2.90647 3.12C3.06647 2.96 3.2798 2.82667 3.49314 2.72C3.70647 2.64 3.94647 2.58667 4.18647 2.58667H17.3331V4.37333C17.3331 4.8 17.4131 5.25333 17.5998 5.65333C17.7598 6.05333 18.0265 6.42667 18.3198 6.74667C18.6398 7.06667 19.0131 7.30667 19.4131 7.46667C19.8131 7.65333 20.2665 7.73333 20.6931 7.73333ZM20.6931 6.18667C20.4531 6.18667 20.2131 6.13333 19.9998 6.05333C19.7865 5.97333 19.5731 5.84 19.4131 5.65333C19.2531 5.49333 19.1198 5.28 19.0131 5.06667C18.9331 4.85333 18.8798 4.61333 18.8798 4.37333V2.66667C19.7598 2.82667 20.5598 3.25333 21.1998 3.86667C21.8398 4.50667 22.2665 5.30667 22.3998 6.18667H20.6931Z" fill="#464D56"/>
<path d="M131.573 1.11999H141.653C145.173 1.11999 148.026 3.97333 148.026 7.49333C148.026 11.0133 145.173 13.8667 141.653 13.8667H131.573C128.053 13.8667 125.2 11.0133 125.2 7.49333C125.226 3.94667 128.08 1.11999 131.573 1.11999Z" fill="url(#paint5_linear_3870_1066)"/>
<path d="M131.013 4.21333H133.467C134.8 4.21333 135.387 5.2 135.387 6.16C135.387 7.12 134.8 8.08 133.467 8.08H132.133V10.2133H131.013V4.21333ZM132.16 5.22667V7.12H133.44C133.92 7.12 134.293 6.69333 134.293 6.24C134.293 6.21333 134.293 6.21333 134.293 6.18667C134.293 5.73333 134.027 5.22667 133.467 5.22667H132.16Z" fill="white"/>
<path d="M137.253 10.2667H136.187V6.16H137.253V7.14667C137.467 6.4 137.947 6.08 138.4 6.08C138.64 6.08 138.88 6.10667 139.093 6.24L138.907 7.2C138.693 7.12 138.48 7.09334 138.293 7.09334C137.547 7.09334 137.253 7.73336 137.253 8.85336V10.2667Z" fill="white"/>
<path d="M139.466 8.18666C139.466 7.01333 140.426 6.05333 141.6 6.05333C142.773 6.05333 143.733 7.01333 143.733 8.18666C143.733 9.36 142.773 10.32 141.6 10.32C140.4 10.32 139.466 9.36 139.466 8.18666ZM142.666 8.18666C142.64 7.6 142.133 7.14666 141.546 7.17333C141.013 7.2 140.56 7.65333 140.533 8.18666C140.506 8.77333 140.96 9.28 141.546 9.30666C142.133 9.33333 142.64 8.88 142.666 8.29333C142.666 8.26666 142.666 8.24 142.666 8.18666Z" fill="white"/>
</g>
<defs>
<linearGradient id="paint0_linear_3870_1066" x1="72.7998" y1="9.27997" x2="83.46" y2="9.72653" gradientUnits="userSpaceOnUse">
<stop stop-color="#0099FF"/>
<stop offset="1" stop-color="#12A1FF"/>
</linearGradient>
<linearGradient id="paint1_linear_3870_1066" x1="84.2666" y1="12.56" x2="95.5902" y2="13.1907" gradientUnits="userSpaceOnUse">
<stop stop-color="#0099FF"/>
<stop offset="1" stop-color="#12A1FF"/>
</linearGradient>
<linearGradient id="paint2_linear_3870_1066" x1="96.9063" y1="12.56" x2="108.23" y2="13.1907" gradientUnits="userSpaceOnUse">
<stop stop-color="#0099FF"/>
<stop offset="1" stop-color="#12A1FF"/>
</linearGradient>
<linearGradient id="paint3_linear_3870_1066" x1="109.573" y1="7.49333" x2="120.802" y2="7.9281" gradientUnits="userSpaceOnUse">
<stop stop-color="#0099FF"/>
<stop offset="1" stop-color="#12A1FF"/>
</linearGradient>
<linearGradient id="paint4_linear_3870_1066" x1="2.34619" y1="2.61334" x2="24.5016" y2="3.68879" gradientUnits="userSpaceOnUse">
<stop stop-color="#0099FF"/>
<stop offset="1" stop-color="#12A1FF"/>
</linearGradient>
<linearGradient id="paint5_linear_3870_1066" x1="125.2" y1="1.11999" x2="149.149" y2="3.78872" gradientUnits="userSpaceOnUse">
<stop stop-color="#0099FF"/>
<stop offset="1" stop-color="#12A1FF"/>
</linearGradient>
</defs>
</svg>
