<svg width="120" height="120" viewBox="0 0 120 120" fill="none" xmlns="http://www.w3.org/2000/svg">
<path d="M84.9942 109.53H10.35C8.92524 109.53 7.55883 108.964 6.55136 107.956C5.54389 106.949 4.97791 105.582 4.97791 104.158V8.20315C4.97787 7.49766 5.11681 6.79907 5.38677 6.14727C5.65673 5.49546 6.05243 4.90322 6.55128 4.40435C7.05013 3.90548 7.64235 3.50975 8.29414 3.23976C8.94593 2.96977 9.64452 2.83081 10.35 2.83081H71.9653L90.3663 21.2773V104.158C90.3663 105.582 89.8004 106.949 88.7929 107.956C87.7854 108.964 86.419 109.53 84.9942 109.53Z" fill="#F5F5F5"/>
<path d="M17.3562 109.53H10.35C8.92524 109.53 7.55883 108.964 6.55136 107.956C5.54389 106.949 4.97791 105.582 4.97791 104.158V8.20315C4.97787 7.49766 5.11681 6.79907 5.38677 6.14727C5.65673 5.49546 6.05243 4.90322 6.55128 4.40435C7.05013 3.90548 7.64235 3.50975 8.29414 3.23976C8.94593 2.96977 9.64452 2.83081 10.35 2.83081H17.3562C16.6507 2.83081 15.9521 2.96977 15.3003 3.23976C14.6485 3.50975 14.0563 3.90548 13.5574 4.40435C13.0586 4.90322 12.6629 5.49546 12.3929 6.14727C12.123 6.79907 11.984 7.49766 11.9841 8.20315V104.158C11.9841 105.582 12.5501 106.949 13.5575 107.956C14.565 108.964 15.9314 109.53 17.3562 109.53Z" fill="#E6E6E6"/>
<path d="M71.9199 2.83081L90.3652 21.2773H74.0011C73.7277 21.2773 73.4569 21.2235 73.2042 21.1189C72.9516 21.0142 72.722 20.8609 72.5286 20.6675C72.3353 20.4742 72.1819 20.2446 72.0772 19.992C71.9726 19.7393 71.9187 19.4686 71.9187 19.1951L71.9199 2.83081Z" fill="#BFBFBF"/>
<path d="M112.313 73.3297L107.617 112.015C107.445 113.437 106.758 114.746 105.686 115.696C104.614 116.645 103.232 117.169 101.8 117.169H79.426C77.994 117.169 76.6117 116.645 75.5399 115.696C74.4681 114.746 73.7812 113.437 73.6088 112.015L68.914 73.3297H112.313Z" fill="#FF5959"/>
<path d="M83.3414 117.169H79.426C77.994 117.169 76.6117 116.645 75.5399 115.696C74.4681 114.746 73.7812 113.437 73.6088 112.015L68.914 73.3297H74.7251L79.647 113.897C79.7565 114.8 80.1929 115.631 80.8736 116.234C81.5543 116.837 82.4321 117.17 83.3414 117.169Z" fill="#E63A57"/>
<path d="M103.061 59.6937L102.072 65.1781L98.843 64.5959L99.8306 59.1176C99.9178 58.6133 99.8015 58.0949 99.5072 57.6762C99.2128 57.2574 98.7644 56.9725 98.2603 56.8838L88.2541 55.1194C87.7494 55.0313 87.2303 55.147 86.8106 55.441C86.391 55.7351 86.1051 56.1836 86.0156 56.6881L85.0268 62.1725L81.7969 61.5903L82.7845 56.112C83.0276 54.7521 83.7998 53.5439 84.932 52.7522C86.0641 51.9605 87.4638 51.6498 88.8246 51.8881L98.8308 53.6525C100.193 53.8927 101.404 54.6641 102.197 55.7971C102.99 56.93 103.301 58.3317 103.061 59.6937Z" fill="#FF5959"/>
<path d="M68.4012 62.3279C68.5179 61.6653 68.7641 61.0323 69.1255 60.4649C69.487 59.8975 69.9566 59.4069 70.5077 59.0211C71.0588 58.6352 71.6804 58.3617 72.3372 58.2161C72.994 58.0705 73.6731 58.0557 74.3356 58.1726L110.789 64.6001C112.127 64.836 113.317 65.5938 114.096 66.7067C114.875 67.8196 115.18 69.1965 114.945 70.5345L113.913 76.3878L67.369 68.1811L68.4012 62.3279Z" fill="#E63A57"/>
<path d="M20.7443 28.5082C20.7443 28.0731 20.9172 27.6558 21.2249 27.3481C21.5325 27.0405 21.9498 26.8676 22.3849 26.8676H73.3639C73.5793 26.8676 73.7926 26.9101 73.9917 26.9925C74.1907 27.0749 74.3716 27.1958 74.524 27.3481C74.6763 27.5005 74.7971 27.6813 74.8796 27.8804C74.962 28.0794 75.0045 28.2928 75.0045 28.5082C75.0045 28.7237 74.962 28.937 74.8796 29.1361C74.7971 29.3351 74.6763 29.516 74.524 29.6683C74.3716 29.8207 74.1907 29.9415 73.9917 30.024C73.7926 30.1064 73.5793 30.1489 73.3639 30.1489H22.3849C21.9498 30.1489 21.5325 29.976 21.2249 29.6683C20.9172 29.3607 20.7443 28.9434 20.7443 28.5082ZM73.3639 38.8772H22.3849C21.9498 38.8772 21.5325 39.0501 21.2249 39.3578C20.9172 39.6654 20.7443 40.0827 20.7443 40.5179C20.7443 40.953 20.9172 41.3703 21.2249 41.6779C21.5325 41.9856 21.9498 42.1585 22.3849 42.1585H73.3639C73.799 42.1585 74.2163 41.9856 74.524 41.6779C74.8316 41.3703 75.0045 40.953 75.0045 40.5179C75.0045 40.0827 74.8316 39.6654 74.524 39.3578C74.2163 39.0501 73.799 38.8772 73.3639 38.8772ZM73.3639 50.8868H22.3849C21.9498 50.8868 21.5325 51.0597 21.2249 51.3674C20.9172 51.675 20.7443 52.0923 20.7443 52.5275C20.7443 52.9626 20.9172 53.3799 21.2249 53.6876C21.5325 53.9952 21.9498 54.1681 22.3849 54.1681H73.3639C73.799 54.1681 74.2163 53.9952 74.524 53.6876C74.8316 53.3799 75.0045 52.9626 75.0045 52.5275C75.0045 52.0923 74.8316 51.675 74.524 51.3674C74.2163 51.0597 73.799 50.8868 73.3639 50.8868ZM57.8421 86.9161H22.3849C21.9498 86.9161 21.5325 87.089 21.2249 87.3967C20.9172 87.7043 20.7443 88.1216 20.7443 88.5568C20.7443 88.9919 20.9172 89.4092 21.2249 89.7169C21.5325 90.0245 21.9498 90.1974 22.3849 90.1974H57.8421C58.2773 90.1974 58.6946 90.0245 59.0022 89.7169C59.3099 89.4092 59.4828 88.9919 59.4828 88.5568C59.4828 88.1216 59.3099 87.7043 59.0022 87.3967C58.6946 87.089 58.2773 86.9161 57.8421 86.9161ZM57.8421 74.9065H22.3849C21.9498 74.9065 21.5325 75.0794 21.2249 75.3871C20.9172 75.6947 20.7443 76.112 20.7443 76.5472C20.7443 76.9823 20.9172 77.3996 21.2249 77.7072C21.5325 78.0149 21.9498 78.1878 22.3849 78.1878H57.8421C58.2773 78.1878 58.6946 78.0149 59.0022 77.7072C59.3099 77.3996 59.4828 76.9823 59.4828 76.5472C59.4828 76.112 59.3099 75.6947 59.0022 75.3871C58.6946 75.0794 58.2773 74.9065 57.8421 74.9065ZM57.8421 62.8969H22.3849C21.9498 62.8969 21.5325 63.0698 21.2249 63.3774C20.9172 63.6851 20.7443 64.1024 20.7443 64.5375C20.7443 64.9727 20.9172 65.39 21.2249 65.6976C21.5325 66.0053 21.9498 66.1782 22.3849 66.1782H57.8421C58.2773 66.1782 58.6946 66.0053 59.0022 65.6976C59.3099 65.39 59.4828 64.9727 59.4828 64.5375C59.4828 64.1024 59.3099 63.6851 59.0022 63.3774C58.6946 63.0698 58.2773 62.8969 57.8421 62.8969Z" fill="#68544F"/>
<path d="M91.9584 83.9634V108.934C91.9584 109.369 91.7856 109.786 91.4779 110.094C91.1702 110.402 90.7529 110.574 90.3178 110.574C89.8827 110.574 89.4654 110.402 89.1577 110.094C88.85 109.786 88.6772 109.369 88.6772 108.934V83.9634C88.6772 83.5283 88.85 83.111 89.1577 82.8033C89.4654 82.4957 89.8827 82.3228 90.3178 82.3228C90.7529 82.3228 91.1702 82.4957 91.4779 82.8033C91.7856 83.111 91.9584 83.5283 91.9584 83.9634ZM99.3666 86.1537C98.9314 86.1537 98.5142 86.3265 98.2065 86.6342C97.8988 86.9419 97.7259 87.3592 97.7259 87.7943V105.103C97.7259 105.538 97.8988 105.956 98.2065 106.263C98.5142 106.571 98.9314 106.744 99.3666 106.744C99.8017 106.744 100.219 106.571 100.527 106.263C100.834 105.956 101.007 105.538 101.007 105.103V87.7943C101.007 87.3592 100.834 86.9419 100.527 86.6342C100.219 86.3265 99.8017 86.1537 99.3666 86.1537ZM81.1591 86.1537C80.724 86.1537 80.3067 86.3265 79.9991 86.6342C79.6914 86.9419 79.5185 87.3592 79.5185 87.7943V105.103C79.5185 105.538 79.6914 105.956 79.9991 106.263C80.3067 106.571 80.724 106.744 81.1591 106.744C81.5943 106.744 82.0116 106.571 82.3193 106.263C82.6269 105.956 82.7998 105.538 82.7998 105.103V87.7943C82.7998 87.3592 82.6269 86.9419 82.3193 86.6342C82.0116 86.3265 81.5943 86.1537 81.1591 86.1537Z" fill="#E63A57"/>
</svg>
