<svg width="1600" height="1413" viewBox="0 0 1600 1413" fill="none" xmlns="http://www.w3.org/2000/svg">
<g opacity="0.4">
<mask id="mask0_3882_6191" style="mask-type:alpha" maskUnits="userSpaceOnUse" x="537" y="326" width="676" height="818">
<rect x="607.823" y="326.499" width="607.701" height="764.094" transform="rotate(5.30217 607.823 326.499)" fill="url(#paint0_linear_3882_6191)"/>
</mask>
<g mask="url(#mask0_3882_6191)">
<path d="M1086 863.764C1074.56 987.037 965.355 1077.69 842.082 1066.25C718.809 1054.81 628.151 945.608 639.592 822.335C651.032 699.062 744.823 774.51 868.096 785.951C991.368 797.391 1097.44 740.492 1086 863.764Z" fill="#579AFF"/>
<g filter="url(#filter0_f_3882_6191)">
<path d="M1085.59 868.215C1076.73 963.639 969.621 1031.72 846.348 1020.28C723.075 1008.84 630.322 922.21 639.178 826.786C648.034 731.362 755.145 663.28 878.418 674.721C1001.69 686.161 1094.44 772.792 1085.59 868.215Z" fill="#579AFF"/>
</g>
<g filter="url(#filter1_f_3882_6191)">
<ellipse cx="863.208" cy="838.604" rx="224.164" ry="173.522" transform="rotate(5.30217 863.208 838.604)" fill="#579AFF"/>
</g>
<g filter="url(#filter2_f_3882_6191)">
<ellipse cx="865.48" cy="814.129" rx="224.164" ry="174.267" transform="rotate(5.30217 865.48 814.129)" fill="#579AFF"/>
</g>
<g filter="url(#filter3_f_3882_6191)">
<ellipse cx="872.293" cy="740.718" rx="224.164" ry="173.522" transform="rotate(5.30217 872.293 740.718)" fill="#579AFF"/>
</g>
<g filter="url(#filter4_f_3882_6191)">
<ellipse cx="881.514" cy="641.352" rx="188.417" ry="173.522" transform="rotate(5.30217 881.514 641.352)" fill="#579AFF"/>
</g>
</g>
<mask id="mask1_3882_6191" style="mask-type:alpha" maskUnits="userSpaceOnUse" x="599" y="389" width="953" height="881">
<rect x="1287.55" y="389.582" width="607.701" height="764.094" transform="rotate(64.2136 1287.55 389.582)" fill="url(#paint1_linear_3882_6191)"/>
</mask>
<g mask="url(#mask1_3882_6191)">
<path d="M1074.36 1076.51C962.889 1130.36 828.862 1083.65 775.006 972.178C721.15 860.704 767.859 726.677 879.334 672.82C990.808 618.964 974.627 738.243 1028.48 849.717C1082.34 961.192 1185.84 1022.65 1074.36 1076.51Z" fill="#FF4DED"/>
<g filter="url(#filter5_f_3882_6191)">
<path d="M1070.34 1078.45C984.05 1120.14 870.438 1063.57 816.582 952.092C762.726 840.617 789.019 716.454 875.31 674.764C961.601 633.075 1075.21 689.647 1129.07 801.122C1182.92 912.596 1156.63 1036.76 1070.34 1078.45Z" fill="#FF4DED"/>
</g>
<g filter="url(#filter6_f_3882_6191)">
<ellipse cx="980.872" cy="872.717" rx="224.164" ry="173.522" transform="rotate(64.2136 980.872 872.717)" fill="#FF4DED"/>
</g>
<g filter="url(#filter7_f_3882_6191)">
<ellipse cx="1003" cy="862.028" rx="224.164" ry="174.267" transform="rotate(64.2136 1003 862.028)" fill="#FF4DED"/>
</g>
<g filter="url(#filter8_f_3882_6191)">
<ellipse cx="1069.39" cy="829.955" rx="224.164" ry="173.522" transform="rotate(64.2136 1069.39 829.955)" fill="#FF4DED"/>
</g>
<g filter="url(#filter9_f_3882_6191)">
<ellipse cx="1159.24" cy="786.542" rx="188.417" ry="173.522" transform="rotate(64.2136 1159.24 786.542)" fill="#FF4DED"/>
</g>
</g>
</g>
<g opacity="0.4">
<mask id="mask2_3882_6191" style="mask-type:alpha" maskUnits="userSpaceOnUse" x="613" y="770" width="946" height="336">
<rect x="1558.24" y="858.338" width="248.58" height="925.359" transform="rotate(95.4175 1558.24 858.338)" fill="url(#paint2_linear_3882_6191)"/>
</mask>
<g mask="url(#mask2_3882_6191)">
<path d="M946.226 1016.33C796.964 1002.18 679.839 949.834 684.621 899.419C689.402 849.004 814.278 819.609 963.54 833.765C1112.8 847.92 1028.8 881.191 1024.02 931.606C1019.24 982.021 1095.49 1030.49 946.226 1016.33Z" fill="#57AEFF"/>
<g filter="url(#filter10_f_3882_6191)">
<path d="M940.835 1015.82C825.294 1004.86 735.505 955.112 740.286 904.697C745.067 854.282 842.608 822.295 958.149 833.253C1073.69 844.21 1163.48 893.962 1158.7 944.378C1153.92 994.793 1056.38 1026.78 940.835 1015.82Z" fill="#57AEFF"/>
</g>
<g filter="url(#filter11_f_3882_6191)">
<ellipse cx="960.266" cy="925.559" rx="91.6942" ry="210.145" transform="rotate(95.4175 960.266 925.559)" fill="#57AEFF"/>
</g>
<g filter="url(#filter12_f_3882_6191)">
<ellipse cx="989.9" cy="928.37" rx="91.6942" ry="211.047" transform="rotate(95.4175 989.9 928.37)" fill="#57AEFF"/>
</g>
<g filter="url(#filter13_f_3882_6191)">
<ellipse cx="1078.79" cy="936.799" rx="91.6942" ry="210.145" transform="rotate(95.4175 1078.79 936.799)" fill="#57AEFF"/>
</g>
<g filter="url(#filter14_f_3882_6191)">
<ellipse cx="1199.1" cy="948.209" rx="77.0719" ry="210.145" transform="rotate(95.4175 1199.1 948.209)" fill="#57AEFF"/>
</g>
</g>
<mask id="mask3_3882_6191" style="mask-type:alpha" maskUnits="userSpaceOnUse" x="442" y="824" width="1090" height="381">
<rect width="643.094" height="547.501" transform="matrix(-0.994335 0.106288 -0.822244 -0.569136 1531.87 1136.33)" fill="url(#paint3_linear_3882_6191)"/>
</mask>
<g mask="url(#mask3_3882_6191)">
<path d="M689.225 995.277C616.247 944.794 662.708 892.593 793 878.682C923.293 864.772 1088.08 894.42 1161.05 944.904C1234.03 995.387 1089.24 979.564 958.943 993.474C828.651 1007.38 762.204 1045.76 689.225 995.277Z" fill="#4A46FF"/>
<g filter="url(#filter15_f_3882_6191)">
<path d="M686.591 993.455C630.099 954.377 689.926 911.421 820.219 897.511C950.511 883.6 1101.93 904.003 1158.42 943.082C1214.91 982.16 1155.09 1025.12 1024.79 1039.03C894.501 1052.94 743.083 1032.53 686.591 993.455Z" fill="#4A46FF"/>
</g>
<g filter="url(#filter16_f_3882_6191)">
<ellipse cx="237.22" cy="124.335" rx="237.22" ry="124.335" transform="matrix(-0.994499 0.106175 -0.822675 -0.569089 1265.98 1017.48)" fill="#4A46FF"/>
</g>
<g filter="url(#filter17_f_3882_6191)">
<ellipse cx="237.22" cy="124.869" rx="237.22" ry="124.869" transform="matrix(-0.994499 0.106175 -0.822675 -0.569089 1280.9 1027.81)" fill="#4A46FF"/>
</g>
<g filter="url(#filter18_f_3882_6191)">
<ellipse cx="237.22" cy="124.335" rx="237.22" ry="124.335" transform="matrix(-0.994499 0.106175 -0.822675 -0.569089 1323.92 1057.57)" fill="#4A46FF"/>
</g>
<g filter="url(#filter19_f_3882_6191)">
<ellipse cx="199.391" cy="124.335" rx="199.391" ry="124.335" transform="matrix(-0.994499 0.106175 -0.822675 -0.569089 1345.13 1102.28)" fill="#4A46FF"/>
</g>
</g>
</g>
<g opacity="0.4">
<mask id="mask4_3882_6191" style="mask-type:alpha" maskUnits="userSpaceOnUse" x="245" y="195" width="916" height="1003">
<rect x="245.564" y="450.643" width="646.721" height="813.156" transform="rotate(-23.2549 245.564 450.643)" fill="url(#paint4_linear_3882_6191)"/>
</mask>
<g mask="url(#mask4_3882_6191)">
<path d="M965.859 709.582C1017.88 830.63 961.918 970.928 840.87 1022.95C719.822 1074.97 579.524 1019.01 527.506 897.958C475.487 776.911 601.54 799.721 722.588 747.702C843.635 695.683 913.84 588.535 965.859 709.582Z" fill="#2C67FF"/>
<g filter="url(#filter20_f_3882_6191)">
<path d="M967.739 713.949C1008.01 807.65 942.52 925.78 821.472 977.798C700.425 1029.82 569.653 996.026 529.386 902.325C489.119 808.623 554.605 690.494 675.653 638.475C796.701 586.457 927.472 620.247 967.739 713.949Z" fill="#2C67FF"/>
</g>
<g filter="url(#filter21_f_3882_6191)">
<ellipse cx="744.806" cy="799.401" rx="238.558" ry="184.664" transform="rotate(-23.2549 744.806 799.401)" fill="#2C67FF"/>
</g>
<g filter="url(#filter22_f_3882_6191)">
<ellipse cx="734.481" cy="775.373" rx="238.558" ry="185.457" transform="rotate(-23.2549 734.481 775.373)" fill="#2C67FF"/>
</g>
<g filter="url(#filter23_f_3882_6191)">
<ellipse cx="703.502" cy="703.283" rx="238.558" ry="184.664" transform="rotate(-23.2549 703.502 703.283)" fill="#2C67FF"/>
</g>
<g filter="url(#filter24_f_3882_6191)">
<ellipse cx="661.57" cy="605.71" rx="200.515" ry="184.664" transform="rotate(-23.2549 661.57 605.71)" fill="#2C67FF"/>
</g>
</g>
<mask id="mask5_3882_6191" style="mask-type:alpha" maskUnits="userSpaceOnUse" x="309" y="601" width="554" height="467">
<rect x="309.072" y="998.786" width="400.542" height="503.623" transform="rotate(-82.1664 309.072 998.786)" fill="url(#paint5_linear_3882_6191)"/>
</mask>
<g mask="url(#mask5_3882_6191)">
<path d="M676.764 699.562C757.602 710.684 814.118 785.232 802.996 866.07C791.875 946.908 717.326 1003.42 636.488 992.303C555.65 981.181 608.061 921.619 619.182 840.781C630.304 759.943 595.925 688.441 676.764 699.562Z" fill="#094EFF"/>
<g filter="url(#filter25_f_3882_6191)">
<path d="M679.682 699.964C742.258 708.573 783.97 781.085 772.848 861.923C761.726 942.761 701.983 1001.31 639.407 992.705C576.831 984.096 535.119 911.584 546.241 830.746C557.363 749.908 617.106 691.355 679.682 699.964Z" fill="#094EFF"/>
</g>
<g filter="url(#filter26_f_3882_6191)">
<ellipse cx="653.711" cy="845.531" rx="147.749" ry="114.371" transform="rotate(-82.1664 653.711 845.531)" fill="#094EFF"/>
</g>
<g filter="url(#filter27_f_3882_6191)">
<ellipse cx="637.66" cy="843.324" rx="147.749" ry="114.861" transform="rotate(-82.1664 637.66 843.324)" fill="#094EFF"/>
</g>
<g filter="url(#filter28_f_3882_6191)">
<ellipse cx="589.52" cy="836.7" rx="147.749" ry="114.371" transform="rotate(-82.1664 589.52 836.7)" fill="#094EFF"/>
</g>
<g filter="url(#filter29_f_3882_6191)">
<ellipse cx="524.36" cy="827.735" rx="124.188" ry="114.371" transform="rotate(-82.1664 524.36 827.735)" fill="#094EFF"/>
</g>
</g>
</g>
<g opacity="0.4">
<mask id="mask6_3882_6191" style="mask-type:alpha" maskUnits="userSpaceOnUse" x="462" y="618" width="733" height="729">
<rect x="777.743" y="1346.48" width="457.758" height="575.563" transform="rotate(-133.6 777.743 1346.48)" fill="url(#paint6_linear_3882_6191)"/>
</mask>
<g mask="url(#mask6_3882_6191)">
<path d="M772.336 804.732C839.869 740.421 946.75 743.033 1011.06 810.567C1075.37 878.1 1072.76 984.981 1005.23 1049.29C937.692 1113.6 921.811 1024.33 857.5 956.8C793.189 889.266 704.803 869.042 772.336 804.732Z" fill="#0066FF"/>
<g filter="url(#filter30_f_3882_6191)">
<path d="M774.772 802.409C827.048 752.627 921.561 767.018 985.872 834.551C1050.18 902.084 1059.94 997.187 1007.66 1046.97C955.384 1096.75 860.872 1082.36 796.561 1014.83C732.25 947.294 722.495 852.191 774.772 802.409Z" fill="#0066FF"/>
</g>
<g filter="url(#filter31_f_3882_6191)">
<ellipse cx="886.342" cy="929.332" rx="168.854" ry="130.708" transform="rotate(-133.6 886.342 929.332)" fill="#0066FF"/>
</g>
<g filter="url(#filter32_f_3882_6191)">
<ellipse cx="872.937" cy="942.097" rx="168.854" ry="131.269" transform="rotate(-133.6 872.937 942.097)" fill="#0066FF"/>
</g>
<g filter="url(#filter33_f_3882_6191)">
<ellipse cx="832.717" cy="980.397" rx="168.854" ry="130.708" transform="rotate(-133.6 832.717 980.397)" fill="#0066FF"/>
</g>
<g filter="url(#filter34_f_3882_6191)">
<ellipse cx="778.281" cy="1032.24" rx="141.927" ry="130.708" transform="rotate(-133.6 778.281 1032.24)" fill="#0066FF"/>
</g>
</g>
<mask id="mask7_3882_6191" style="mask-type:alpha" maskUnits="userSpaceOnUse" x="771" y="821" width="355" height="410">
<rect x="1125.89" y="1169.44" width="283.509" height="356.471" transform="rotate(167.489 1125.89 1169.44)" fill="url(#paint7_linear_3882_6191)"/>
</mask>
<g mask="url(#mask7_3882_6191)">
<path d="M836.828 999.058C824.316 942.672 859.883 886.82 916.269 874.308C972.654 861.796 1028.51 897.362 1041.02 953.748C1053.53 1010.13 1001.11 990.008 944.719 1002.52C888.334 1015.03 849.34 1055.44 836.828 999.058Z" fill="#096BFF"/>
<g filter="url(#filter35_f_3882_6191)">
<path d="M836.378 997.022C826.692 953.375 864.55 907.849 920.936 895.337C977.322 882.825 1030.88 908.065 1040.57 951.712C1050.25 995.36 1012.4 1040.89 956.01 1053.4C899.624 1065.91 846.063 1040.67 836.378 997.022Z" fill="#096BFF"/>
</g>
<g filter="url(#filter36_f_3882_6191)">
<ellipse cx="939.375" cy="978.437" rx="104.579" ry="80.9531" transform="rotate(167.489 939.375 978.437)" fill="#096BFF"/>
</g>
<g filter="url(#filter37_f_3882_6191)">
<ellipse cx="941.861" cy="989.632" rx="104.579" ry="81.3005" transform="rotate(167.489 941.861 989.632)" fill="#096BFF"/>
</g>
<g filter="url(#filter38_f_3882_6191)">
<ellipse cx="949.311" cy="1023.21" rx="104.579" ry="80.9531" transform="rotate(167.489 949.311 1023.21)" fill="#096BFF"/>
</g>
<g filter="url(#filter39_f_3882_6191)">
<ellipse cx="959.397" cy="1068.66" rx="87.9018" ry="80.9531" transform="rotate(167.489 959.397 1068.66)" fill="#096BFF"/>
</g>
</g>
</g>
<defs>
<filter id="filter0_f_3882_6191" x="632.484" y="667.357" width="459.798" height="360.287" filterUnits="userSpaceOnUse" color-interpolation-filters="sRGB">
<feFlood flood-opacity="0" result="BackgroundImageFix"/>
<feBlend mode="normal" in="SourceGraphic" in2="BackgroundImageFix" result="shape"/>
<feGaussianBlur stdDeviation="3.0545" result="effect1_foregroundBlur_3882_6191"/>
</filter>
<filter id="filter1_f_3882_6191" x="618.036" y="643.188" width="490.343" height="390.832" filterUnits="userSpaceOnUse" color-interpolation-filters="sRGB">
<feFlood flood-opacity="0" result="BackgroundImageFix"/>
<feBlend mode="normal" in="SourceGraphic" in2="BackgroundImageFix" result="shape"/>
<feGaussianBlur stdDeviation="10.6908" result="effect1_foregroundBlur_3882_6191"/>
</filter>
<filter id="filter2_f_3882_6191" x="589.759" y="587.432" width="551.443" height="453.394" filterUnits="userSpaceOnUse" color-interpolation-filters="sRGB">
<feFlood flood-opacity="0" result="BackgroundImageFix"/>
<feBlend mode="normal" in="SourceGraphic" in2="BackgroundImageFix" result="shape"/>
<feGaussianBlur stdDeviation="25.9633" result="effect1_foregroundBlur_3882_6191"/>
</filter>
<filter id="filter3_f_3882_6191" x="535.486" y="453.667" width="673.613" height="574.102" filterUnits="userSpaceOnUse" color-interpolation-filters="sRGB">
<feFlood flood-opacity="0" result="BackgroundImageFix"/>
<feBlend mode="normal" in="SourceGraphic" in2="BackgroundImageFix" result="shape"/>
<feGaussianBlur stdDeviation="56.5083" result="effect1_foregroundBlur_3882_6191"/>
</filter>
<filter id="filter4_f_3882_6191" x="494.666" y="269.141" width="773.696" height="744.421" filterUnits="userSpaceOnUse" color-interpolation-filters="sRGB">
<feFlood flood-opacity="0" result="BackgroundImageFix"/>
<feBlend mode="normal" in="SourceGraphic" in2="BackgroundImageFix" result="shape"/>
<feGaussianBlur stdDeviation="99.2713" result="effect1_foregroundBlur_3882_6191"/>
</filter>
<filter id="filter5_f_3882_6191" x="782.515" y="654.944" width="380.621" height="443.326" filterUnits="userSpaceOnUse" color-interpolation-filters="sRGB">
<feFlood flood-opacity="0" result="BackgroundImageFix"/>
<feBlend mode="normal" in="SourceGraphic" in2="BackgroundImageFix" result="shape"/>
<feGaussianBlur stdDeviation="3.0545" result="effect1_foregroundBlur_3882_6191"/>
</filter>
<filter id="filter6_f_3882_6191" x="775.289" y="635.782" width="411.166" height="473.871" filterUnits="userSpaceOnUse" color-interpolation-filters="sRGB">
<feFlood flood-opacity="0" result="BackgroundImageFix"/>
<feBlend mode="normal" in="SourceGraphic" in2="BackgroundImageFix" result="shape"/>
<feGaussianBlur stdDeviation="10.6908" result="effect1_foregroundBlur_3882_6191"/>
</filter>
<filter id="filter7_f_3882_6191" x="766.303" y="594.434" width="473.396" height="535.188" filterUnits="userSpaceOnUse" color-interpolation-filters="sRGB">
<feFlood flood-opacity="0" result="BackgroundImageFix"/>
<feBlend mode="normal" in="SourceGraphic" in2="BackgroundImageFix" result="shape"/>
<feGaussianBlur stdDeviation="25.9633" result="effect1_foregroundBlur_3882_6191"/>
</filter>
<filter id="filter8_f_3882_6191" x="772.17" y="501.384" width="594.436" height="657.141" filterUnits="userSpaceOnUse" color-interpolation-filters="sRGB">
<feFlood flood-opacity="0" result="BackgroundImageFix"/>
<feBlend mode="normal" in="SourceGraphic" in2="BackgroundImageFix" result="shape"/>
<feGaussianBlur stdDeviation="56.5083" result="effect1_foregroundBlur_3882_6191"/>
</filter>
<filter id="filter9_f_3882_6191" x="784.229" y="402.263" width="750.031" height="768.558" filterUnits="userSpaceOnUse" color-interpolation-filters="sRGB">
<feFlood flood-opacity="0" result="BackgroundImageFix"/>
<feBlend mode="normal" in="SourceGraphic" in2="BackgroundImageFix" result="shape"/>
<feGaussianBlur stdDeviation="99.2713" result="effect1_foregroundBlur_3882_6191"/>
</filter>
<filter id="filter10_f_3882_6191" x="735.826" y="826.824" width="427.333" height="195.427" filterUnits="userSpaceOnUse" color-interpolation-filters="sRGB">
<feFlood flood-opacity="0" result="BackgroundImageFix"/>
<feBlend mode="normal" in="SourceGraphic" in2="BackgroundImageFix" result="shape"/>
<feGaussianBlur stdDeviation="2.13896" result="effect1_foregroundBlur_3882_6191"/>
</filter>
<filter id="filter11_f_3882_6191" x="735.904" y="817.15" width="448.723" height="216.816" filterUnits="userSpaceOnUse" color-interpolation-filters="sRGB">
<feFlood flood-opacity="0" result="BackgroundImageFix"/>
<feBlend mode="normal" in="SourceGraphic" in2="BackgroundImageFix" result="shape"/>
<feGaussianBlur stdDeviation="7.48635" result="effect1_foregroundBlur_3882_6191"/>
</filter>
<filter id="filter12_f_3882_6191" x="743.252" y="798.554" width="493.296" height="259.632" filterUnits="userSpaceOnUse" color-interpolation-filters="sRGB">
<feFlood flood-opacity="0" result="BackgroundImageFix"/>
<feBlend mode="normal" in="SourceGraphic" in2="BackgroundImageFix" result="shape"/>
<feGaussianBlur stdDeviation="18.1811" result="effect1_foregroundBlur_3882_6191"/>
</filter>
<filter id="filter13_f_3882_6191" x="790.257" y="764.222" width="577.06" height="345.154" filterUnits="userSpaceOnUse" color-interpolation-filters="sRGB">
<feFlood flood-opacity="0" result="BackgroundImageFix"/>
<feBlend mode="normal" in="SourceGraphic" in2="BackgroundImageFix" result="shape"/>
<feGaussianBlur stdDeviation="39.5707" result="effect1_foregroundBlur_3882_6191"/>
</filter>
<filter id="filter14_f_3882_6191" x="850.735" y="729.906" width="696.735" height="436.605" filterUnits="userSpaceOnUse" color-interpolation-filters="sRGB">
<feFlood flood-opacity="0" result="BackgroundImageFix"/>
<feBlend mode="normal" in="SourceGraphic" in2="BackgroundImageFix" result="shape"/>
<feGaussianBlur stdDeviation="69.5161" result="effect1_foregroundBlur_3882_6191"/>
</filter>
<filter id="filter15_f_3882_6191" x="661.028" y="888.863" width="522.956" height="158.81" filterUnits="userSpaceOnUse" color-interpolation-filters="sRGB">
<feFlood flood-opacity="0" result="BackgroundImageFix"/>
<feBlend mode="normal" in="SourceGraphic" in2="BackgroundImageFix" result="shape"/>
<feGaussianBlur stdDeviation="2.13896" result="effect1_foregroundBlur_3882_6191"/>
</filter>
<filter id="filter16_f_3882_6191" x="655.602" y="881.813" width="544.346" height="180.2" filterUnits="userSpaceOnUse" color-interpolation-filters="sRGB">
<feFlood flood-opacity="0" result="BackgroundImageFix"/>
<feBlend mode="normal" in="SourceGraphic" in2="BackgroundImageFix" result="shape"/>
<feGaussianBlur stdDeviation="7.48635" result="effect1_foregroundBlur_3882_6191"/>
</filter>
<filter id="filter17_f_3882_6191" x="648.523" y="870.158" width="587.476" height="223.552" filterUnits="userSpaceOnUse" color-interpolation-filters="sRGB">
<feFlood flood-opacity="0" result="BackgroundImageFix"/>
<feBlend mode="normal" in="SourceGraphic" in2="BackgroundImageFix" result="shape"/>
<feGaussianBlur stdDeviation="18.1811" result="effect1_foregroundBlur_3882_6191"/>
</filter>
<filter id="filter18_f_3882_6191" x="649.381" y="857.729" width="672.683" height="308.537" filterUnits="userSpaceOnUse" color-interpolation-filters="sRGB">
<feFlood flood-opacity="0" result="BackgroundImageFix"/>
<feBlend mode="normal" in="SourceGraphic" in2="BackgroundImageFix" result="shape"/>
<feGaussianBlur stdDeviation="39.5707" result="effect1_foregroundBlur_3882_6191"/>
</filter>
<filter id="filter19_f_3882_6191" x="682.349" y="839.783" width="724.4" height="425.817" filterUnits="userSpaceOnUse" color-interpolation-filters="sRGB">
<feFlood flood-opacity="0" result="BackgroundImageFix"/>
<feBlend mode="normal" in="SourceGraphic" in2="BackgroundImageFix" result="shape"/>
<feGaussianBlur stdDeviation="69.5161" result="effect1_foregroundBlur_3882_6191"/>
</filter>
<filter id="filter20_f_3882_6191" x="510.438" y="606.972" width="476.249" height="402.33" filterUnits="userSpaceOnUse" color-interpolation-filters="sRGB">
<feFlood flood-opacity="0" result="BackgroundImageFix"/>
<feBlend mode="normal" in="SourceGraphic" in2="BackgroundImageFix" result="shape"/>
<feGaussianBlur stdDeviation="3.53844" result="effect1_foregroundBlur_3882_6191"/>
</filter>
<filter id="filter21_f_3882_6191" x="488.989" y="580.544" width="511.634" height="437.714" filterUnits="userSpaceOnUse" color-interpolation-filters="sRGB">
<feFlood flood-opacity="0" result="BackgroundImageFix"/>
<feBlend mode="normal" in="SourceGraphic" in2="BackgroundImageFix" result="shape"/>
<feGaussianBlur stdDeviation="12.3845" result="effect1_foregroundBlur_3882_6191"/>
</filter>
<filter id="filter22_f_3882_6191" x="443.18" y="520.494" width="582.601" height="509.758" filterUnits="userSpaceOnUse" color-interpolation-filters="sRGB">
<feFlood flood-opacity="0" result="BackgroundImageFix"/>
<feBlend mode="normal" in="SourceGraphic" in2="BackgroundImageFix" result="shape"/>
<feGaussianBlur stdDeviation="30.0767" result="effect1_foregroundBlur_3882_6191"/>
</filter>
<filter id="filter23_f_3882_6191" x="341.532" y="378.272" width="723.94" height="650.021" filterUnits="userSpaceOnUse" color-interpolation-filters="sRGB">
<feFlood flood-opacity="0" result="BackgroundImageFix"/>
<feBlend mode="normal" in="SourceGraphic" in2="BackgroundImageFix" result="shape"/>
<feGaussianBlur stdDeviation="65.4612" result="effect1_foregroundBlur_3882_6191"/>
</filter>
<filter id="filter24_f_3882_6191" x="233.391" y="188.443" width="856.358" height="834.533" filterUnits="userSpaceOnUse" color-interpolation-filters="sRGB">
<feFlood flood-opacity="0" result="BackgroundImageFix"/>
<feBlend mode="normal" in="SourceGraphic" in2="BackgroundImageFix" result="shape"/>
<feGaussianBlur stdDeviation="114.999" result="effect1_foregroundBlur_3882_6191"/>
</filter>
<filter id="filter25_f_3882_6191" x="537.369" y="692.047" width="244.35" height="308.574" filterUnits="userSpaceOnUse" color-interpolation-filters="sRGB">
<feFlood flood-opacity="0" result="BackgroundImageFix"/>
<feBlend mode="normal" in="SourceGraphic" in2="BackgroundImageFix" result="shape"/>
<feGaussianBlur stdDeviation="3.53844" result="effect1_foregroundBlur_3882_6191"/>
</filter>
<filter id="filter26_f_3882_6191" x="513.843" y="673.551" width="279.734" height="343.959" filterUnits="userSpaceOnUse" color-interpolation-filters="sRGB">
<feFlood flood-opacity="0" result="BackgroundImageFix"/>
<feBlend mode="normal" in="SourceGraphic" in2="BackgroundImageFix" result="shape"/>
<feGaussianBlur stdDeviation="12.3845" result="effect1_foregroundBlur_3882_6191"/>
</filter>
<filter id="filter27_f_3882_6191" x="461.929" y="635.953" width="351.461" height="414.742" filterUnits="userSpaceOnUse" color-interpolation-filters="sRGB">
<feFlood flood-opacity="0" result="BackgroundImageFix"/>
<feBlend mode="normal" in="SourceGraphic" in2="BackgroundImageFix" result="shape"/>
<feGaussianBlur stdDeviation="30.0767" result="effect1_foregroundBlur_3882_6191"/>
</filter>
<filter id="filter28_f_3882_6191" x="343.5" y="558.567" width="492.041" height="556.265" filterUnits="userSpaceOnUse" color-interpolation-filters="sRGB">
<feFlood flood-opacity="0" result="BackgroundImageFix"/>
<feBlend mode="normal" in="SourceGraphic" in2="BackgroundImageFix" result="shape"/>
<feGaussianBlur stdDeviation="65.4612" result="effect1_foregroundBlur_3882_6191"/>
</filter>
<filter id="filter29_f_3882_6191" x="179.785" y="473.711" width="689.15" height="708.049" filterUnits="userSpaceOnUse" color-interpolation-filters="sRGB">
<feFlood flood-opacity="0" result="BackgroundImageFix"/>
<feBlend mode="normal" in="SourceGraphic" in2="BackgroundImageFix" result="shape"/>
<feGaussianBlur stdDeviation="114.999" result="effect1_foregroundBlur_3882_6191"/>
</filter>
<filter id="filter30_f_3882_6191" x="734.072" y="765.69" width="314.29" height="317.998" filterUnits="userSpaceOnUse" color-interpolation-filters="sRGB">
<feFlood flood-opacity="0" result="BackgroundImageFix"/>
<feBlend mode="normal" in="SourceGraphic" in2="BackgroundImageFix" result="shape"/>
<feGaussianBlur stdDeviation="3.53844" result="effect1_foregroundBlur_3882_6191"/>
</filter>
<filter id="filter31_f_3882_6191" x="711.505" y="752.641" width="349.674" height="353.382" filterUnits="userSpaceOnUse" color-interpolation-filters="sRGB">
<feFlood flood-opacity="0" result="BackgroundImageFix"/>
<feBlend mode="normal" in="SourceGraphic" in2="BackgroundImageFix" result="shape"/>
<feGaussianBlur stdDeviation="12.3845" result="effect1_foregroundBlur_3882_6191"/>
</filter>
<filter id="filter32_f_3882_6191" x="662.459" y="729.792" width="420.956" height="424.61" filterUnits="userSpaceOnUse" color-interpolation-filters="sRGB">
<feFlood flood-opacity="0" result="BackgroundImageFix"/>
<feBlend mode="normal" in="SourceGraphic" in2="BackgroundImageFix" result="shape"/>
<feGaussianBlur stdDeviation="30.0767" result="effect1_foregroundBlur_3882_6191"/>
</filter>
<filter id="filter33_f_3882_6191" x="551.727" y="697.553" width="561.98" height="565.689" filterUnits="userSpaceOnUse" color-interpolation-filters="sRGB">
<feFlood flood-opacity="0" result="BackgroundImageFix"/>
<feBlend mode="normal" in="SourceGraphic" in2="BackgroundImageFix" result="shape"/>
<feGaussianBlur stdDeviation="65.4612" result="effect1_foregroundBlur_3882_6191"/>
</filter>
<filter id="filter34_f_3882_6191" x="412.123" y="665.53" width="732.315" height="733.414" filterUnits="userSpaceOnUse" color-interpolation-filters="sRGB">
<feFlood flood-opacity="0" result="BackgroundImageFix"/>
<feBlend mode="normal" in="SourceGraphic" in2="BackgroundImageFix" result="shape"/>
<feGaussianBlur stdDeviation="114.999" result="effect1_foregroundBlur_3882_6191"/>
</filter>
<filter id="filter35_f_3882_6191" x="827.788" y="885.056" width="221.369" height="178.624" filterUnits="userSpaceOnUse" color-interpolation-filters="sRGB">
<feFlood flood-opacity="0" result="BackgroundImageFix"/>
<feBlend mode="normal" in="SourceGraphic" in2="BackgroundImageFix" result="shape"/>
<feGaussianBlur stdDeviation="3.53844" result="effect1_foregroundBlur_3882_6191"/>
</filter>
<filter id="filter36_f_3882_6191" x="810.998" y="871.433" width="256.753" height="214.008" filterUnits="userSpaceOnUse" color-interpolation-filters="sRGB">
<feFlood flood-opacity="0" result="BackgroundImageFix"/>
<feBlend mode="normal" in="SourceGraphic" in2="BackgroundImageFix" result="shape"/>
<feGaussianBlur stdDeviation="12.3845" result="effect1_foregroundBlur_3882_6191"/>
</filter>
<filter id="filter37_f_3882_6191" x="778.087" y="846.917" width="327.548" height="285.429" filterUnits="userSpaceOnUse" color-interpolation-filters="sRGB">
<feFlood flood-opacity="0" result="BackgroundImageFix"/>
<feBlend mode="normal" in="SourceGraphic" in2="BackgroundImageFix" result="shape"/>
<feGaussianBlur stdDeviation="30.0767" result="effect1_foregroundBlur_3882_6191"/>
</filter>
<filter id="filter38_f_3882_6191" x="714.781" y="810.054" width="469.059" height="426.315" filterUnits="userSpaceOnUse" color-interpolation-filters="sRGB">
<feFlood flood-opacity="0" result="BackgroundImageFix"/>
<feBlend mode="normal" in="SourceGraphic" in2="BackgroundImageFix" result="shape"/>
<feGaussianBlur stdDeviation="65.4612" result="effect1_foregroundBlur_3882_6191"/>
</filter>
<filter id="filter39_f_3882_6191" x="641.792" y="757.351" width="635.208" height="622.62" filterUnits="userSpaceOnUse" color-interpolation-filters="sRGB">
<feFlood flood-opacity="0" result="BackgroundImageFix"/>
<feBlend mode="normal" in="SourceGraphic" in2="BackgroundImageFix" result="shape"/>
<feGaussianBlur stdDeviation="114.999" result="effect1_foregroundBlur_3882_6191"/>
</filter>
<linearGradient id="paint0_linear_3882_6191" x1="1053.92" y1="934.944" x2="1053.92" y2="326.499" gradientUnits="userSpaceOnUse">
<stop stop-color="white"/>
<stop offset="1" stop-color="white" stop-opacity="0"/>
</linearGradient>
<linearGradient id="paint1_linear_3882_6191" x1="1733.64" y1="998.027" x2="1733.64" y2="389.582" gradientUnits="userSpaceOnUse">
<stop stop-color="white"/>
<stop offset="1" stop-color="white" stop-opacity="0"/>
</linearGradient>
<linearGradient id="paint2_linear_3882_6191" x1="1740.71" y1="1595.2" x2="1740.71" y2="858.338" gradientUnits="userSpaceOnUse">
<stop stop-color="white"/>
<stop offset="1" stop-color="white" stop-opacity="0"/>
</linearGradient>
<linearGradient id="paint3_linear_3882_6191" x1="472.075" y1="435.973" x2="472.075" y2="3.3918e-06" gradientUnits="userSpaceOnUse">
<stop stop-color="white"/>
<stop offset="1" stop-color="white" stop-opacity="0"/>
</linearGradient>
<linearGradient id="paint4_linear_3882_6191" x1="720.302" y1="1098.16" x2="720.302" y2="450.643" gradientUnits="userSpaceOnUse">
<stop stop-color="white"/>
<stop offset="1" stop-color="white" stop-opacity="0"/>
</linearGradient>
<linearGradient id="paint5_linear_3882_6191" x1="603.098" y1="1399.82" x2="603.098" y2="998.786" gradientUnits="userSpaceOnUse">
<stop stop-color="white"/>
<stop offset="1" stop-color="white" stop-opacity="0"/>
</linearGradient>
<linearGradient id="paint6_linear_3882_6191" x1="1113.77" y1="1804.8" x2="1113.77" y2="1346.48" gradientUnits="userSpaceOnUse">
<stop stop-color="white"/>
<stop offset="1" stop-color="white" stop-opacity="0"/>
</linearGradient>
<linearGradient id="paint7_linear_3882_6191" x1="1334.01" y1="1453.3" x2="1334.01" y2="1169.44" gradientUnits="userSpaceOnUse">
<stop stop-color="white"/>
<stop offset="1" stop-color="white" stop-opacity="0"/>
</linearGradient>
</defs>
</svg>
