<svg width="416" height="416" viewBox="0 0 416 416" fill="none" xmlns="http://www.w3.org/2000/svg">
<path d="M193.155 98.6651C193.155 98.6651 146.172 100.737 121.287 149.858C96.4019 198.979 70.7014 183.646 55.5258 227.958C40.3501 272.27 70.9511 322.656 91.4682 328.122C111.985 333.589 346.285 328.122 346.285 328.122C346.285 328.122 377.244 306.956 379.673 251.978C382.102 196.999 335.968 178.637 316.849 170.824C297.729 163.004 268.26 97.4504 193.155 98.6651Z" fill="#F3F5F4"/>
<path d="M260.47 233.012C314.592 196.595 325.083 177.9 351.791 174.422C416.853 165.952 369.18 334.133 220.202 370.067C149.415 387.14 61.7306 340.573 49.1923 304.389C37.0701 269.403 69.7094 256.283 117.907 275.044C166.105 293.814 232.898 251.565 260.47 233.012Z" stroke="#BBBFBD" stroke-width="0.833826" stroke-miterlimit="10"/>
<path d="M323.98 197.039C327.05 193.682 326.819 188.472 323.462 185.402C320.106 182.331 314.896 182.563 311.825 185.919C308.755 189.275 308.986 194.485 312.343 197.556C315.699 200.627 320.909 200.395 323.98 197.039Z" fill="#D9D9D9"/>
<path d="M320.414 359.223C323.631 356.006 323.631 350.791 320.414 347.574C317.197 344.358 311.982 344.358 308.766 347.574C305.549 350.791 305.549 356.006 308.766 359.223C311.982 362.439 317.197 362.439 320.414 359.223Z" stroke="#BBBFBD" stroke-width="0.833826" stroke-miterlimit="10"/>
<path d="M207.268 174.196C211.817 174.196 215.505 170.509 215.505 165.959C215.505 161.41 211.817 157.723 207.268 157.723C202.719 157.723 199.031 161.41 199.031 165.959C199.031 170.509 202.719 174.196 207.268 174.196Z" stroke="#BBBFBD" stroke-width="0.833826" stroke-miterlimit="10"/>
<path d="M183.955 198.883L175.594 210.514H191.477L183.955 198.883Z" stroke="#BBBFBD" stroke-width="0.833826" stroke-miterlimit="10" stroke-linecap="round" stroke-linejoin="round"/>
<path d="M144.676 346.68L139.418 356.797H155.301L144.676 346.68Z" fill="#D9D9D9"/>
<path d="M100.066 227.043C101.067 222.784 98.4258 218.521 94.1672 217.52C89.9087 216.519 85.6451 219.16 84.6443 223.418C83.6434 227.677 86.2842 231.94 90.5428 232.941C94.8013 233.942 99.0649 231.301 100.066 227.043Z" fill="#D9D9D9"/>
<path d="M372.823 83.7422H301.97C297.927 83.7422 294.648 87.0203 294.648 91.0638V133.704C294.648 137.747 297.927 141.025 301.97 141.025H316.389L313.526 148.414C312.694 150.552 315.174 152.449 317.021 151.093L330.716 141.025H372.806C376.85 141.025 380.128 137.747 380.128 133.704V91.0638C380.145 87.0203 376.867 83.7422 372.823 83.7422Z" fill="#27BBFF"/>
<path d="M303.012 95.6992H370.778" stroke="white" stroke-width="0.833826" stroke-miterlimit="10" stroke-linecap="round" stroke-linejoin="round"/>
<path d="M303.012 101.855H370.778" stroke="white" stroke-width="0.833826" stroke-miterlimit="10" stroke-linecap="round" stroke-linejoin="round"/>
<path d="M303.012 108.012H370.778" stroke="white" stroke-width="0.833826" stroke-miterlimit="10" stroke-linecap="round" stroke-linejoin="round"/>
<path d="M303.012 114.16H370.778" stroke="white" stroke-width="0.833826" stroke-miterlimit="10" stroke-linecap="round" stroke-linejoin="round"/>
<path d="M303.012 120.316H370.778" stroke="white" stroke-width="0.833826" stroke-miterlimit="10" stroke-linecap="round" stroke-linejoin="round"/>
<path d="M303.012 126.473H370.778" stroke="white" stroke-width="0.833826" stroke-miterlimit="10" stroke-linecap="round" stroke-linejoin="round"/>
<path d="M151.297 219.292C151.297 219.292 150.573 213.235 149.642 210.348C148.701 207.461 144.741 201.986 144.741 201.986C144.741 201.986 143.152 205.372 145.465 208.185C145.465 208.185 145.324 212.652 145.54 214.242C145.54 214.242 138.044 207.835 136.604 207.186C135.689 206.454 134.574 205.564 133.21 204.482C128.234 200.514 124.915 201.745 125.347 202.028C125.647 202.228 131.338 206.828 134.857 209.682L134.399 210.34C133.326 209.483 131.629 208.126 129.1 206.113C124.124 202.144 120.805 203.376 121.237 203.659C121.595 203.9 129.923 210.647 132.644 212.844L131.845 213.992C130.789 213.152 129.041 211.754 126.362 209.616C121.387 205.647 118.067 206.878 118.5 207.161C118.874 207.411 127.594 214.475 130.09 216.496L129.241 217.711C128.317 216.871 125.747 214.583 123.259 212.852C120.156 210.689 117.926 211.696 117.926 211.696C117.926 211.696 117.926 211.696 119.299 212.919C120.671 214.142 127.81 219.766 127.81 219.766C127.81 219.766 138.709 229.5 141.438 230.441L144.109 232.987L153.918 222.37L151.297 219.292Z" fill="#FF996A"/>
<path d="M229.747 286.527C223.898 294.963 215.711 300.172 204.837 297.959C175.7 292.035 141.297 235.484 141.297 235.484L143.027 233.612L155.865 219.717L200.552 260.327L214.505 240.126L228.133 220.399L234.872 210.648C234.872 210.648 238.816 216.888 241.303 236.715C242.859 249.145 239.581 272.375 229.747 286.527Z" fill="#D3AA7D"/>
<path d="M229.747 286.526C223.898 294.962 215.711 300.171 204.837 297.957C175.7 292.034 141.297 235.483 141.297 235.483L143.027 233.611L144.092 233.02C144.092 233.02 185.085 289.421 202.366 281.026C213.049 275.843 214.762 255.168 214.513 240.125L228.141 220.398L229.747 286.526Z" fill="#C1966B"/>
<path d="M339.176 281.02L336.522 327.77H326.23L330.274 281.02H339.176Z" fill="#0B9EFF"/>
<path d="M276.169 281.02L273.515 327.77H263.215L267.267 281.02H276.169Z" fill="#649176"/>
<path d="M340.234 289.113H258.673C250.569 289.113 243.996 282.54 243.996 274.436V228.809C243.996 220.706 250.569 214.133 258.673 214.133H340.234C348.337 214.133 354.91 220.706 354.91 228.809V274.436C354.91 282.54 348.346 289.113 340.234 289.113Z" fill="#0B9EFF"/>
<path d="M333.355 289.113H251.794C243.69 289.113 237.117 282.54 237.117 274.436V228.809C237.117 220.706 243.69 214.133 251.794 214.133H333.355C341.458 214.133 348.031 220.706 348.031 228.809V274.436C348.039 282.54 341.467 289.113 333.355 289.113Z" fill="#27BBFF"/>
<path d="M271.876 193.083C271.876 193.083 287.958 190.504 309.607 212.885L314.599 327.767H224.152C224.152 327.767 214.276 250.267 225.791 222.702C237.298 195.138 257.973 191.852 271.876 193.083Z" fill="#FFD294"/>
<path d="M240.327 130.777L244.296 125.344L278.15 136.676L277.859 149.389H280.097C284.64 149.389 288.317 153.066 288.317 157.609C288.317 162.151 284.64 165.829 280.097 165.829H277.484L277.085 183.093V198.26L252.574 201.63L251.975 191.488L251.659 186.155L248.106 184.457C237.923 179.598 231.441 169.323 231.441 158.041C231.425 148.24 234.545 138.697 240.327 130.777Z" fill="#FF996A"/>
<path d="M251.652 186.165L251.969 191.498C252.867 191.39 253.816 191.249 254.789 191.074C269.931 188.312 275.855 174.633 275.24 167.578C275.24 167.578 270.139 184.526 251.652 186.165Z" fill="#D37A57"/>
<path d="M280.349 155.263C279.717 155.745 279.134 156.377 278.918 157.168C278.918 157.168 280.183 157.592 280.299 159.007C280.416 160.421 278.918 161.037 278.918 161.037C278.918 161.037 280.066 162.95 281.98 161.919C283.893 160.887 283.577 157.276 281.672 156.519C281.672 156.519 284.7 156.178 285.807 157.284C285.807 157.284 286.065 156.169 284.8 155.188C283.502 154.173 281.664 154.264 280.349 155.263Z" fill="#D37A57"/>
<path d="M240.331 130.776C240.331 130.776 244.915 138.664 250.839 141.218C256.763 143.772 263.094 140.053 269.018 143.448C274.942 146.834 271.165 153.19 272.487 156.244C273.819 159.297 275.291 159.705 275.291 159.705C275.291 159.705 276.09 151.027 277.862 149.388C277.862 149.388 283.179 149.347 284.834 150.894C284.834 150.894 287.805 144.895 288.32 140.195C288.828 135.494 283.62 133.963 283.62 133.963C283.62 133.963 282.397 122.731 268.61 118.538C254.824 114.353 244.299 120.992 238.791 118.538C233.275 116.083 228.275 119.761 227.967 125.327C227.659 130.893 231.437 132.931 231.437 132.931C231.437 132.931 228.882 135.086 229.906 138.397C230.929 141.709 234.132 142.474 234.132 142.474C234.132 142.474 237.901 134.096 240.331 130.776Z" fill="#3F2D1F"/>
<path d="M243.074 171.163L257.11 170.473C257.11 170.473 253.857 175.531 249.231 175.481C244.971 175.431 243.074 171.163 243.074 171.163Z" fill="white"/>
<path d="M259.205 148.302C259.03 148.302 258.847 148.244 258.706 148.119C255.744 145.681 252.832 147.753 252.799 147.77C252.449 148.027 251.95 147.953 251.692 147.595C251.434 147.245 251.509 146.746 251.867 146.488C253.215 145.507 256.592 144.317 259.712 146.888C260.054 147.162 260.095 147.661 259.821 148.003C259.663 148.202 259.43 148.302 259.205 148.302Z" fill="#3F2D1F"/>
<path d="M241.748 148.302C241.573 148.302 241.39 148.244 241.249 148.119C238.287 145.681 235.375 147.753 235.342 147.77C234.992 148.027 234.493 147.953 234.235 147.595C233.977 147.245 234.052 146.746 234.41 146.488C235.758 145.507 239.135 144.317 242.255 146.888C242.597 147.162 242.638 147.661 242.364 148.003C242.197 148.202 241.973 148.302 241.748 148.302Z" fill="#3F2D1F"/>
<path d="M281.57 194.282L277.127 188.5L259.48 194.715L256.626 199.674L254.696 195.223L252.017 192.294L249.238 197.66C249.238 197.66 249.321 203.035 256.127 204.466C262.933 205.897 277.801 200.356 281.57 194.282Z" fill="#9C897A"/>
<path d="M284.831 150.902C284.831 150.902 282.086 149.854 279.482 152.25C276.877 154.646 277.759 157.001 277.759 157.001C277.759 157.001 278.966 154.163 281.537 154.471C284.116 154.779 285.988 161.743 282.543 163.049C279.099 164.355 274.698 162.367 274.856 157.001C275.005 151.634 276.977 148.597 280.222 148.131C283.475 147.665 284.756 150.394 284.831 150.902Z" fill="#27BBFF"/>
<path d="M260.47 177.881C260.137 177.881 259.838 177.648 259.771 177.307C259.696 176.924 259.946 176.55 260.337 176.475C273.682 173.913 278.2 161.341 278.25 161.216C278.375 160.85 278.782 160.65 279.148 160.784C279.514 160.908 279.714 161.316 279.589 161.682C279.539 161.815 274.772 175.144 260.603 177.873C260.561 177.873 260.512 177.881 260.47 177.881Z" fill="#27BBFF"/>
<path d="M257.492 177.417C257.492 179.064 258.832 180.403 260.479 180.403C262.126 180.403 263.466 179.064 263.466 177.417C263.466 175.769 262.126 174.43 260.479 174.43C258.832 174.43 257.492 175.761 257.492 177.417Z" fill="#0B9EFF"/>
<path d="M281.206 155.753C281.206 155.753 280.832 159.056 281.556 160.82C282.279 162.584 283.411 161.668 283.636 159.53C283.852 157.384 281.714 154.38 281.206 155.753Z" fill="#0B9EFF"/>
<path d="M252.809 154.648C252.809 154.648 252.817 157.726 256.844 158.242C260.871 158.75 261.611 154.648 261.611 154.648C261.611 154.648 259.323 152.501 256.361 152.435C253.408 152.376 252.809 154.648 252.809 154.648Z" fill="white"/>
<path d="M234.395 154.648C234.395 154.648 234.403 157.726 238.347 158.242C242.29 158.749 242.814 154.656 242.814 154.656C242.814 154.656 240.768 152.509 237.872 152.443C234.977 152.376 234.395 154.648 234.395 154.648Z" fill="white"/>
<path d="M242.819 154.645C242.819 154.645 240.706 152.324 238.442 151.908C236.179 151.492 234.632 152.59 234.391 154.645C234.391 154.645 234.84 152.948 237.103 152.74C239.366 152.54 242.819 154.645 242.819 154.645Z" fill="#3F2D1F"/>
<path d="M261.611 154.648C261.611 154.648 259.406 152.227 257.043 151.786C254.681 151.353 253.058 152.501 252.809 154.648C252.809 154.648 253.275 152.876 255.637 152.659C258.009 152.443 261.611 154.648 261.611 154.648Z" fill="#3F2D1F"/>
<path d="M246.684 154.738L244.828 165.962C244.828 165.962 243.348 166.078 241.301 165.238C241.301 165.238 246.16 155.995 246.684 154.738Z" fill="#D37A57"/>
<path d="M191.372 327.768C191.372 327.768 191.073 318.807 201.165 316.003C211.257 313.199 223.545 321.403 225.517 327.768H191.372Z" fill="#0B9EFF"/>
<path d="M256.678 158.632C258.075 158.632 259.207 157.202 259.207 155.437C259.207 153.673 258.075 152.242 256.678 152.242C255.281 152.242 254.148 153.673 254.148 155.437C254.148 157.202 255.281 158.632 256.678 158.632Z" fill="#3F2D1F"/>
<path d="M241.476 155.536C241.476 157.25 240.37 158.632 239.013 158.632C237.649 158.632 236.551 157.242 236.551 155.536C236.551 153.823 237.657 152.441 239.013 152.441C240.378 152.433 241.476 153.823 241.476 155.536Z" fill="#3F2D1F"/>
<path d="M267.86 163.436C267.86 164.833 266.204 165.965 264.174 165.965C262.136 165.965 260.488 164.833 260.488 163.436C260.488 162.038 262.144 160.906 264.174 160.906C266.204 160.915 267.86 162.046 267.86 163.436Z" fill="#D37A57"/>
<path d="M237.735 162.225C237.735 163.622 236.079 164.754 234.049 164.754C232.011 164.754 230.363 163.622 230.363 162.225C230.363 160.827 232.019 159.695 234.049 159.695C236.087 159.695 237.735 160.827 237.735 162.225Z" fill="#D37A57"/>
<path d="M334.459 299.247C331.905 306.935 327.229 312.742 321.696 316.852C317.927 319.639 313.759 321.644 309.599 322.901C292.235 328.167 227.93 327.76 227.93 327.76L230.351 308.332L302.36 292.15C302.36 292.15 293.05 262.606 293.458 238.736C293.832 216.521 300.455 207.361 307.918 211.687C308.476 212.02 309.041 212.411 309.599 212.885C309.599 212.885 320.972 229.833 332.703 264.627C337.504 278.863 337.421 290.311 334.459 299.247Z" fill="#E5BC89"/>
<path d="M223.04 310.921L207.764 308.134C207.764 308.134 204.961 307.651 202.148 308.866C199.345 310.081 196.158 315.996 196.158 315.996C196.158 315.996 198.737 316.038 200.484 314.457C202.232 312.884 202.456 311.52 202.456 311.52L208.064 311.961L208.164 313.259C206.292 313.666 200.959 314.881 198.363 315.996C195.176 317.361 193.504 321.537 193.504 321.537C193.504 321.537 197.681 320.93 199.802 318.351L208.48 317.369L208.538 318.176C206.749 318.301 203.554 318.7 200.559 320.023C196.083 321.995 194.719 324.649 194.719 324.649C194.719 324.649 199.195 324.649 202.348 322.219L204.47 322.045C202.373 323.384 200.568 326.621 200.568 326.621C200.568 326.621 201.474 326.845 203.529 325.938C205.576 325.032 206.109 323.992 206.109 323.992L212.082 324.441C215.186 324.882 219.87 325.314 222.549 324.424L228.257 325.306L230.045 310.921H223.04Z" fill="#FF996A"/>
<path d="M350.211 337.171H62.9625C60.3667 337.171 58.2617 335.066 58.2617 332.47C58.2617 329.874 60.3667 327.77 62.9625 327.77H350.211C352.806 327.77 354.911 329.874 354.911 332.47C354.911 335.066 352.806 337.171 350.211 337.171Z" fill="#0B9EFF"/>
<path d="M240.104 337.171H61.0822C59.5264 337.171 58.2617 335.066 58.2617 332.47C58.2617 329.874 59.5264 327.77 61.0822 327.77H150.589H240.095C241.651 327.77 242.916 329.874 242.916 332.47C242.924 335.066 241.659 337.171 240.104 337.171Z" fill="#27BBFF"/>
<path d="M185.966 309.659H87.0416C83.7052 309.659 80.8182 307.338 80.1027 304.076L67.3148 246.003C66.6908 243.157 68.854 240.453 71.7744 240.453H171.814C174.768 240.453 177.33 242.508 177.963 245.395L190.792 303.652C191.466 306.739 189.12 309.659 185.966 309.659Z" fill="#0B9EFF"/>
<path d="M103.267 299.811C102.443 303.971 97.584 306.517 92.4173 305.493C87.2506 304.47 83.7312 300.26 84.5632 296.1C85.3869 291.94 90.2458 289.394 95.4125 290.418C100.571 291.449 104.09 295.651 103.267 299.811Z" fill="#27BBFF"/>
<path d="M190.791 303.652L177.961 245.395C177.329 242.508 174.766 240.453 171.813 240.453H166.047C169 240.453 171.563 242.508 172.195 245.395L185.025 303.652C185.707 306.73 183.361 309.651 180.199 309.651H185.965C189.118 309.659 191.464 306.739 190.791 303.652Z" fill="#27BBFF"/>
<path d="M173.67 325.44C173.67 326.729 172.629 327.769 171.34 327.769H89.2215C87.9069 327.769 86.7089 327.229 85.8436 326.363C84.97 325.498 84.4375 324.308 84.4375 322.985C84.4375 322.045 84.7204 321.122 85.2445 320.34L105.57 289.888C106.153 289.031 107.118 288.516 108.149 288.516H143.684C144.957 288.516 145.756 289.897 145.115 291.003L127.959 320.647C127.319 321.746 128.118 323.11 129.374 323.11H171.34C171.981 323.11 172.563 323.368 172.987 323.801C173.412 324.208 173.67 324.791 173.67 325.44Z" fill="#27BBFF"/>
<path d="M149.291 274.646H98.9048C98.3141 274.646 97.8398 274.171 97.8398 273.581C97.8398 272.99 98.3141 272.516 98.9048 272.516H149.291C149.881 272.516 150.356 272.99 150.356 273.581C150.347 274.171 149.873 274.646 149.291 274.646Z" fill="#27BBFF"/>
<path d="M151.72 281.021H101.334C100.744 281.021 100.27 280.546 100.27 279.956C100.27 279.365 100.744 278.891 101.334 278.891H151.72C152.311 278.891 152.785 279.365 152.785 279.956C152.777 280.546 152.303 281.021 151.72 281.021Z" fill="#27BBFF"/>
<path d="M68.3552 243.893H175.043C175.908 243.893 176.74 244.051 177.514 244.342C176.557 242.021 174.277 240.457 171.698 240.457H71.6582C69.4368 240.457 67.6563 242.021 67.207 244.026C67.5731 243.935 67.9558 243.893 68.3552 243.893Z" fill="#27BBFF"/>
<path d="M177.97 299.805C178.796 295.645 175.278 291.441 170.112 290.416C164.947 289.391 160.09 291.932 159.265 296.092C158.439 300.253 161.957 304.456 167.122 305.481C172.287 306.507 177.144 303.965 177.97 299.805Z" fill="#27BBFF"/>
<path d="M173.662 325.606C173.57 326.846 172.455 327.769 171.215 327.769H124.482C122.593 327.769 121.062 326.239 121.062 324.35C121.062 323.701 121.246 323.069 121.587 322.528L143.061 288.516H143.685C144.958 288.516 145.756 289.897 145.116 291.003L127.96 320.647C127.319 321.746 128.118 323.11 129.374 323.11H171.34C171.981 323.11 172.563 323.368 172.988 323.801C173.445 324.25 173.711 324.891 173.662 325.606Z" fill="#0B9EFF"/>
<path d="M309.599 322.901C292.235 328.168 227.93 327.76 227.93 327.76L311.013 305.654C319.699 303.341 325.232 294.838 323.818 285.961C320.165 263.006 313.102 221.822 307.91 211.68C308.467 212.012 309.033 212.404 309.59 212.878C309.59 212.878 320.964 229.826 332.695 264.62C344.435 299.439 326.971 317.643 309.599 322.901Z" fill="#D3AA7D"/>
<path d="M304.699 292.965C304.699 292.965 316.58 292.799 326.223 301.61" stroke="#9C897A" stroke-width="0.833826" stroke-miterlimit="10" stroke-linecap="round" stroke-linejoin="round"/>
<path d="M279.848 196.355C279.848 196.355 295.481 201.672 303.177 210.782" stroke="#E5BC89" stroke-width="0.833826" stroke-miterlimit="10" stroke-linecap="round" stroke-linejoin="round"/>
<path d="M202.031 262.98C202.031 262.98 210.667 274.163 211.766 287.042" stroke="#9C897A" stroke-width="0.833826" stroke-miterlimit="10" stroke-linecap="round" stroke-linejoin="round"/>
<path d="M246.685 197.746C246.685 197.746 243.399 206.956 257.11 208.088C270.821 209.219 285.847 195.766 285.847 195.766" stroke="#E5BC89" stroke-width="0.833826" stroke-miterlimit="10" stroke-linecap="round" stroke-linejoin="round"/>
<path d="M227.93 310.922L224.727 324.758L228.246 325.299L230.035 310.922H227.93Z" fill="#D37A57"/>
<path d="M256.127 204.473C256.127 204.473 252.059 216.054 249.238 246.006" stroke="#E5BC89" stroke-width="0.833826" stroke-miterlimit="10" stroke-linecap="round" stroke-linejoin="round"/>
<path d="M282.377 134.104C282.377 134.104 275.97 132.59 270.18 134.819" stroke="#543E2F" stroke-width="0.833826" stroke-miterlimit="10" stroke-linecap="round" stroke-linejoin="round"/>
<path d="M240.331 130.777C240.331 130.777 239.682 140.154 251.546 141.494" stroke="#543E2F" stroke-width="0.833826" stroke-miterlimit="10" stroke-linecap="round" stroke-linejoin="round"/>
<path d="M283.434 127.922C283.434 127.922 284.815 131.649 283.617 133.971" stroke="#543E2F" stroke-width="0.833826" stroke-miterlimit="10" stroke-linecap="round" stroke-linejoin="round"/>
<path d="M229.712 124.121C229.712 124.121 229.179 129.879 235.061 132.142" stroke="#543E2F" stroke-width="0.833826" stroke-miterlimit="10" stroke-linecap="round" stroke-linejoin="round"/>
<path d="M231.851 134.809C231.851 134.809 230.761 139.118 234.83 140.974" stroke="#543E2F" stroke-width="0.833826" stroke-miterlimit="10" stroke-linecap="round" stroke-linejoin="round"/>
<path d="M250.836 120.1C250.836 120.1 258.424 116.772 269.198 121.614C278.916 125.982 279.848 131.423 279.848 131.423" stroke="#543E2F" stroke-width="0.833826" stroke-miterlimit="10" stroke-linecap="round" stroke-linejoin="round"/>
<path d="M283.434 136.414C283.434 136.414 285.572 137.421 285.572 140.458C285.572 143.486 284.108 146.581 284.108 146.581" stroke="#543E2F" stroke-width="0.833826" stroke-miterlimit="10" stroke-linecap="round" stroke-linejoin="round"/>
<path d="M247.809 135.352C247.809 135.352 249.323 139.362 258.15 139.811C266.978 140.26 269.832 140.26 272.236 143.106C274.641 145.96 273.842 149.08 273.842 149.08" stroke="#543E2F" stroke-width="0.833826" stroke-miterlimit="10" stroke-linecap="round" stroke-linejoin="round"/>
<path d="M244.487 42.293H164.166C159.515 42.293 155.746 46.0619 155.746 50.7128V64.4658C155.746 69.1167 159.515 72.8856 164.166 72.8856H174.807L172.328 81.4303C171.87 83.0194 173.617 84.3339 175.024 83.452L191.68 72.8856H244.496C249.146 72.8856 252.915 69.1167 252.915 64.4658V50.7128C252.915 46.0619 249.138 42.293 244.487 42.293Z" fill="#27BBFF"/>
<path d="M166.664 50.5234H242.459" stroke="white" stroke-width="0.833826" stroke-miterlimit="10" stroke-linecap="round" stroke-linejoin="round"/>
<path d="M166.664 56.9531H242.459" stroke="white" stroke-width="0.833826" stroke-miterlimit="10" stroke-linecap="round" stroke-linejoin="round"/>
<path d="M166.664 63.3867H242.459" stroke="white" stroke-width="0.833826" stroke-miterlimit="10" stroke-linecap="round" stroke-linejoin="round"/>
<path d="M113.633 194.074C151.404 194.074 182.023 163.454 182.023 125.683C182.023 87.9124 151.404 57.293 113.633 57.293C75.8616 57.293 45.2422 87.9124 45.2422 125.683C45.2422 163.454 75.8616 194.074 113.633 194.074Z" stroke="#BBBFBD" stroke-width="0.833826" stroke-miterlimit="10"/>
<path d="M177.681 125.684C177.681 149.587 164.585 170.429 145.183 181.436C143.012 182.668 140.757 183.783 138.436 184.756C130.806 187.968 122.428 189.74 113.634 189.74C113.051 189.74 112.469 189.731 111.895 189.715C111.537 189.706 111.179 189.69 110.83 189.665C110.58 189.665 110.331 189.657 110.081 189.632C109.698 189.615 109.324 189.59 108.95 189.557C108.792 189.548 108.633 189.54 108.475 189.515C108.026 189.49 107.585 189.44 107.136 189.407C106.62 189.349 106.113 189.299 105.613 189.232L121.446 166.327L79.372 120.717L51.916 142.898C51.6332 141.866 51.3669 140.843 51.134 139.795C51.0508 139.395 50.9592 138.996 50.8844 138.605C50.7762 138.081 50.668 137.557 50.5848 137.033C50.5183 136.683 50.46 136.334 50.4101 135.993C50.3269 135.493 50.252 134.986 50.1772 134.478C50.1356 134.195 50.094 133.921 50.069 133.63C50.0108 133.197 49.9608 132.756 49.9192 132.307L49.8943 132.049C49.8444 131.575 49.8028 131.1 49.7695 130.618C49.7279 130.085 49.6863 129.561 49.6696 129.02V128.987C49.6364 128.438 49.6114 127.897 49.6031 127.34C49.5864 126.791 49.5781 126.242 49.5781 125.684C49.5781 115.051 52.174 105.026 56.7583 96.198C66.2847 77.8524 84.4306 64.7068 105.838 62.1026C108.392 61.7948 110.996 61.6367 113.634 61.6367C124.383 61.6367 134.534 64.2908 143.428 68.9833L115.531 91.5055L134.151 147.965L170.26 95.7487C174.994 104.676 177.681 114.868 177.681 125.684Z" fill="#27BBFF"/>
<path d="M56.5903 96.1406L79.2041 120.66L51.7481 142.841C51.4652 141.809 51.199 140.786 50.966 139.737C50.8828 139.338 50.7913 138.939 50.7164 138.548C50.6082 138.024 50.5001 137.499 50.4169 136.975C50.3503 136.626 50.2921 136.276 50.2422 135.935C50.159 135.436 50.0841 134.928 50.0092 134.421C49.9676 134.138 49.926 133.863 49.901 133.572C49.8428 133.14 49.7929 132.699 49.7513 132.249L49.7263 131.992C49.6764 131.517 49.6348 131.043 49.6015 130.56C49.5599 130.028 49.5183 129.504 49.5017 128.963V128.93C49.4684 128.381 49.4434 127.84 49.4351 127.282C49.4185 126.733 49.4102 126.184 49.4102 125.627C49.4102 114.994 52.006 104.968 56.5903 96.1406Z" fill="#27BBFF"/>
<path d="M138.268 184.698C130.638 187.91 122.26 189.682 113.466 189.682C112.883 189.682 112.301 189.674 111.727 189.657C111.369 189.649 111.011 189.632 110.662 189.607C110.412 189.607 110.163 189.599 109.913 189.574C109.53 189.557 109.156 189.532 108.782 189.499C108.624 189.491 108.465 189.482 108.307 189.457C107.858 189.432 107.417 189.382 106.968 189.349C106.452 189.291 105.945 189.241 105.445 189.174L121.278 166.27L138.268 184.698Z" fill="#7EAF92"/>
<path d="M143.254 68.9247L115.357 91.4469L105.664 62.044C108.218 61.7362 110.822 61.5781 113.46 61.5781C124.218 61.5781 134.36 64.2322 143.254 68.9247Z" fill="#0C9FFF"/>
<path d="M177.503 125.626C177.503 149.53 164.407 170.371 145.005 181.379L133.973 147.916L170.081 95.6992C174.824 104.627 177.503 114.819 177.503 125.626Z" fill="#43C4FF"/>
<path d="M121.278 166.27L105.445 189.175C105.046 189.125 104.638 189.075 104.239 189.008C103.906 188.959 103.573 188.917 103.24 188.859C102.866 188.8 102.508 188.742 102.134 188.667C101.643 188.584 101.152 188.493 100.661 188.393C100.245 188.31 99.8209 188.218 99.4133 188.127C99.1553 188.068 98.8891 188.01 98.6312 187.943C98.2817 187.86 97.9406 187.777 97.5995 187.694C96.468 187.411 95.3531 187.087 94.2465 186.737C93.8472 186.612 93.4395 186.487 93.0484 186.346C92.5076 186.163 91.9835 185.98 91.4593 185.789C90.9685 185.614 90.4776 185.423 89.995 185.231C89.5041 185.04 89.0216 184.84 88.5473 184.64C88.0731 184.441 87.5989 184.241 87.1329 184.025C87.1329 184.025 87.1246 184.025 87.1163 184.016C86.6421 183.8 86.1761 183.584 85.7102 183.359C84.2875 182.677 82.9064 181.945 81.5419 181.163C81.1176 180.913 80.6849 180.655 80.2689 180.406C79.387 179.873 78.5134 179.316 77.6648 178.733C77.2404 178.45 76.8161 178.159 76.4001 177.86C75.9841 177.568 75.5598 177.261 75.1521 176.953C75.1355 176.944 75.1189 176.928 75.0939 176.911C74.7029 176.62 74.3118 176.32 73.9291 176.021C73.588 175.755 73.2552 175.488 72.9224 175.214C72.4315 174.815 71.9489 174.407 71.4747 173.999C71.1086 173.683 70.7592 173.367 70.4014 173.042C70.0437 172.718 69.6859 172.385 69.3364 172.052C69.2948 172.011 69.2532 171.977 69.2283 171.952C68.8788 171.611 68.5294 171.27 68.1883 170.921C67.8888 170.621 67.5892 170.313 67.2897 170.006C66.882 169.581 66.466 169.14 66.075 168.699C65.7256 168.317 65.3845 167.934 65.0517 167.543C64.7854 167.243 64.5275 166.935 64.2779 166.628C64.1198 166.453 63.9784 166.278 63.8369 166.095C63.5873 165.787 63.3377 165.479 63.0964 165.172C62.8219 164.822 62.5473 164.473 62.2894 164.123C61.9317 163.657 61.5822 163.191 61.2577 162.709C60.9582 162.293 60.667 161.869 60.3841 161.444C60.1761 161.145 59.9848 160.845 59.7851 160.537C59.6603 160.354 59.5438 160.163 59.419 159.98C58.8782 159.14 58.3624 158.283 57.8632 157.409C57.6302 157.001 57.4056 156.585 57.1726 156.169C56.6485 155.213 56.1492 154.239 55.6833 153.249C55.4753 152.841 55.284 152.417 55.1009 152.001C54.9013 151.56 54.7016 151.119 54.5185 150.67C54.5019 150.637 54.4936 150.595 54.4769 150.57C54.2773 150.104 54.0776 149.63 53.8945 149.156C53.8945 149.139 53.8862 149.122 53.8779 149.097C53.6865 148.623 53.5035 148.141 53.3288 147.658C53.154 147.2 52.9876 146.735 52.8296 146.26C52.6881 145.844 52.5467 145.412 52.4136 144.987C52.322 144.671 52.2139 144.347 52.1224 144.031C52.114 144.006 52.1057 143.989 52.1057 143.964C51.9976 143.59 51.8811 143.223 51.7812 142.849L79.2372 120.668L121.278 166.27Z" fill="#0B9EFF"/>
<path d="M170.092 95.6951L133.983 147.911L115.363 91.4519L143.26 68.9297C154.684 74.9284 164.06 84.2801 170.092 95.6951Z" fill="#0B9EFF"/>
<path d="M133.982 147.913L121.277 166.267L79.2031 120.657L115.362 91.4453L133.982 147.913Z" fill="#43C4FF"/>
<path d="M125.325 116.717L125.525 113.347L127.78 112.274C134.219 109.204 138.321 102.698 138.321 95.559C138.321 89.3523 136.349 83.312 132.689 78.3033L130.176 74.8672L108.752 82.039L108.935 90.0845H107.521C104.65 90.0845 102.321 92.4141 102.321 95.2845C102.321 98.1549 104.65 100.484 107.521 100.484H109.176L109.426 111.409V115.244C109.426 115.244 105.557 118.972 98.2188 122.133C98.2188 122.133 106.406 132.408 119.934 133.091C133.462 133.764 133.978 125.636 133.978 125.636C133.978 125.636 128.37 122.275 125.151 119.496L125.325 116.717Z" fill="#FF996A"/>
<path d="M125.52 113.347L125.32 116.716C124.755 116.65 124.156 116.558 123.532 116.45C113.955 114.703 110.203 106.042 110.594 101.582C110.594 101.582 113.822 112.307 125.52 113.347Z" fill="#D37A57"/>
<path d="M107.361 93.7934C107.76 94.0929 108.134 94.5006 108.267 94.9998C108.267 94.9998 107.469 95.2661 107.394 96.1646C107.319 97.0632 108.267 97.4459 108.267 97.4459C108.267 97.4459 107.544 98.6606 106.329 98.0033C105.114 97.3461 105.314 95.0664 106.52 94.5838C106.52 94.5838 104.607 94.3675 103.899 95.0664C103.899 95.0664 103.741 94.3592 104.54 93.7352C105.372 93.1029 106.529 93.1611 107.361 93.7934Z" fill="#D37A57"/>
<path d="M125.058 87.4539C124.95 87.4539 124.833 87.4955 124.742 87.5787C122.911 89.1761 121.031 87.9198 121.014 87.9032C120.79 87.7451 120.473 87.8033 120.315 88.0363C120.157 88.2609 120.216 88.5771 120.448 88.7352C121.322 89.3342 123.477 90.0165 125.399 88.3358C125.607 88.1528 125.632 87.8366 125.449 87.6286C125.349 87.5038 125.208 87.4456 125.058 87.4539Z" fill="#3F2D1F"/>
<path d="M136.313 88.6826C136.213 88.6244 136.097 88.6077 135.98 88.6327C133.592 89.082 132.611 87.0436 132.602 87.0186C132.486 86.769 132.186 86.6609 131.937 86.7773C131.687 86.8938 131.579 87.1933 131.695 87.4429C132.145 88.3997 133.651 90.0887 136.163 89.6144C136.438 89.5645 136.612 89.2983 136.563 89.0321C136.538 88.874 136.438 88.7492 136.313 88.6826Z" fill="#3F2D1F"/>
<path d="M124.793 93.4026C124.793 93.4026 124.793 95.3494 122.238 95.6739C119.684 95.9984 119.227 93.4026 119.227 93.4026C119.227 93.4026 120.674 92.0464 122.546 92.0048C124.41 91.9632 124.793 93.4026 124.793 93.4026Z" fill="white"/>
<path d="M136.438 93.4026C136.438 93.4026 136.438 95.3494 133.942 95.6739C131.446 95.9984 131.113 93.4026 131.113 93.4026C131.113 93.4026 132.411 92.0464 134.242 92.0048C136.072 91.9632 136.438 93.4026 136.438 93.4026Z" fill="white"/>
<path d="M131.113 93.4038C131.113 93.4038 132.453 91.9395 133.884 91.6733C135.315 91.407 136.297 92.1059 136.446 93.4038C136.446 93.4038 136.164 92.3305 134.732 92.1974C133.293 92.0643 131.113 93.4038 131.113 93.4038Z" fill="#3F2D1F"/>
<path d="M119.215 93.4026C119.215 93.4026 120.613 91.8717 122.11 91.5888C123.608 91.3143 124.631 92.0381 124.789 93.4026C124.789 93.4026 124.49 92.2794 123 92.1463C121.503 92.0048 119.215 93.4026 119.215 93.4026Z" fill="#3F2D1F"/>
<path d="M128.66 93.457L129.833 100.554C129.833 100.554 130.773 100.629 132.063 100.096C132.071 100.096 129.001 94.2474 128.66 93.457Z" fill="#D37A57"/>
<path d="M120.738 93.9007C120.738 95.0155 121.454 95.9224 122.336 95.9224C123.218 95.9224 123.933 95.0155 123.933 93.9007C123.933 92.7858 123.218 91.8789 122.336 91.8789C121.454 91.8789 120.738 92.7775 120.738 93.9007Z" fill="#3F2D1F"/>
<path d="M131.953 93.9596C131.953 95.0412 132.652 95.9231 133.517 95.9231C134.383 95.9231 135.081 95.0412 135.081 93.9596C135.081 92.878 134.383 91.9961 133.517 91.9961C132.652 92.0044 131.953 92.878 131.953 93.9596Z" fill="#3F2D1F"/>
<path d="M117.6 100.558C118.891 100.558 119.938 99.843 119.938 98.9607C119.938 98.0785 118.891 97.3633 117.6 97.3633C116.308 97.3633 115.262 98.0785 115.262 98.9607C115.262 99.843 116.308 100.558 117.6 100.558Z" fill="#D37A57"/>
<path d="M136.662 99.7886C137.953 99.7886 139 99.0734 139 98.1912C139 97.3089 137.953 96.5938 136.662 96.5938C135.371 96.5938 134.324 97.3089 134.324 98.1912C134.324 99.0734 135.371 99.7886 136.662 99.7886Z" fill="#D37A57"/>
<path d="M129.508 103.295C129.508 103.295 125.739 103.42 124.216 104.818C122.694 106.215 128.326 106.64 129.508 106.09C130.697 105.541 131.222 103.112 129.508 103.295Z" fill="white"/>
<path d="M120.322 92.6391C120.322 92.6391 119.574 92.9968 118.75 92.4727C118.75 92.4727 118.825 93.2464 119.216 93.4045L120.322 92.6391Z" fill="#3F2D1F"/>
<path d="M135.574 92.1133C135.574 92.1133 136.464 92.8454 137.138 92.6208C137.388 92.5376 136.448 93.4029 136.448 93.4029C136.215 92.5875 135.574 92.1133 135.574 92.1133Z" fill="#3F2D1F"/>
<path d="M140.722 129.734C140.722 129.734 152.72 151.658 157.296 170.045L144.924 177.25C144.924 177.25 140.007 167.424 138.318 152.34C136.62 137.264 140.722 129.734 140.722 129.734Z" fill="#847062"/>
<path d="M133.982 80.2297C133.982 80.2297 121.993 91.5699 111.044 90.3302C111.044 90.3302 109.854 98.2924 111.835 101.346C111.835 101.346 110.986 102.186 109.805 98.9996C108.615 95.8131 109.555 91.4118 108.948 90.0806C108.948 90.0806 105.295 89.2153 102.891 92.9343C100.486 96.6534 105.744 101.204 109.189 100.481L109.347 107.328C109.347 107.328 105.403 108.801 102.067 105.98C98.7389 103.16 100.37 100.273 100.37 100.273C100.37 100.273 95.3444 95.3139 95.1197 88.4249C94.8951 81.5359 100.628 77.2096 100.628 77.2096C100.628 77.2096 102.516 67.0176 115.113 66.9011C127.709 66.7846 131.378 70.5702 131.378 70.5702C131.378 70.5702 139.507 71.9513 141.795 80.5958C144.083 89.2403 138.317 93.8579 138.317 93.8579C138.317 93.8579 136.645 82.7756 133.982 80.2297Z" fill="#3F2D1F"/>
<path d="M102.732 76.0125C102.732 76.0125 102.125 68.6077 95.1027 68.9239C88.0806 69.2401 86.7245 77.2855 89.7696 81.0129C92.823 84.7402 96.8 83.8916 99.7619 81.0129C102.732 78.1342 102.732 76.0125 102.732 76.0125Z" fill="#3F2D1F"/>
<path d="M111.899 105.139L107.473 114.358C107.315 114.691 106.899 114.782 106.599 114.566L106.416 114.425L91.906 103.209C91.6813 103.035 91.6148 102.727 91.7479 102.477L96.7565 93.3167L96.873 93.1004C97.0394 92.7843 97.4554 92.7011 97.7383 92.934L111.749 104.457C111.949 104.624 112.015 104.907 111.899 105.139Z" fill="white"/>
<path d="M142.447 182.832C133.786 187.208 124.001 189.662 113.635 189.662C105.107 189.662 96.9612 187.99 89.5231 184.962L84.7891 130.715C84.7891 130.715 85.7625 126.979 91.5615 124.841C98.1593 122.403 98.2259 122.129 98.2259 122.129C123.361 134.784 133.985 125.623 133.985 125.623L139.518 128.435C140.067 128.71 140.491 129.168 140.724 129.733C142.031 132.853 146.357 143.686 146.79 151.149C147.131 157.098 144.319 173.081 142.447 182.832Z" fill="#9C897A"/>
<path d="M87.5488 127.031C87.5488 127.031 81.4169 129.469 79.2038 145.502C76.9824 161.543 79.3536 170.037 79.3536 170.037L91.5507 155.552C91.5507 155.561 95.7274 133.354 87.5488 127.031Z" fill="#9C897A"/>
<path d="M105.771 103.578C104.597 104.252 101.552 106.382 101.012 107.28C100.754 107.713 100.637 108.204 100.596 108.603L99.8301 108.221C100.213 106.573 100.928 104.917 100.928 104.917C100.928 104.917 102.143 104.269 102.817 103.312C103.491 102.355 103.241 101.581 103.241 101.581C102.775 101.847 102.035 102.338 101.261 102.887C101.269 102.871 101.286 102.862 101.294 102.846C101.968 101.889 101.719 101.115 101.719 101.115C100.504 101.814 97.3424 104.027 96.7767 104.959C96.4688 105.458 96.369 106.041 96.3357 106.473L96.1194 106.365C96.4855 104.618 97.2842 102.754 97.2842 102.754C97.2842 102.754 98.4989 102.105 99.1728 101.149C99.8467 100.192 99.5971 99.418 99.5971 99.418C98.3824 100.117 95.2208 102.33 94.6551 103.262C94.0893 104.194 94.2058 105.408 94.2058 105.408L94.6551 113.371L95.1043 122.123C95.1043 122.123 79.0135 158.948 79.2048 167.925C79.3879 176.902 84.7792 180.463 84.7792 180.463C84.7792 180.463 90.5367 179.789 94.2141 174.115C97.8832 168.441 101.278 125.227 101.278 125.227C101.278 125.227 103.2 122.29 103.541 119.477C103.882 116.665 102.592 109.577 102.592 109.577C102.975 108.121 103.557 106.781 103.557 106.781C103.557 106.781 104.731 106.157 105.38 105.234C106.012 104.318 105.771 103.578 105.771 103.578Z" fill="#FF996A"/>
<path d="M111.904 105.14L107.478 114.359C107.32 114.691 106.904 114.783 106.604 114.567L106.421 114.425L110.897 104.799L96.7617 93.3089L96.8782 93.0926C97.0446 92.7764 97.4606 92.6932 97.7435 92.9262L111.754 104.449C111.954 104.624 112.021 104.907 111.904 105.14Z" fill="#D9D9D9"/>
<path d="M96.768 95.1602L96.1523 96.3666L99.1975 98.8293L99.8963 97.6645L96.768 95.1602Z" fill="#D9D9D9"/>
<path d="M184.966 131.506L181.547 132.138L181.455 131.839C182.445 131.498 184.766 130.591 185.707 129.176C186.913 127.363 187.337 125.615 187.337 125.615C187.337 125.615 185.241 126.714 184.434 128.802L182.811 129.101C183.46 128.702 184.059 128.211 184.442 127.645C185.648 125.832 186.073 124.084 186.073 124.084C186.073 124.084 183.976 125.183 183.169 127.271L181.131 127.654C181.979 126.988 182.861 126.123 183.235 125.183C184.034 123.153 184.084 121.355 184.084 121.355C184.084 121.355 182.27 122.87 181.921 125.083L179.675 126.023L169.849 129.093L169.923 127.679C169.923 127.679 170.298 127.454 171.33 126.639C172.361 125.823 173.659 122.437 173.659 122.437C173.659 122.437 168.509 124.858 167.253 127.529C165.996 130.2 164.807 136.789 164.807 136.789C164.807 136.789 153.001 165.202 150.904 173.031C150.904 173.031 146.852 174.603 144.922 177.258C144.922 177.258 149.049 184.829 152.318 185.619C152.318 185.619 161.803 183.814 166.321 172.74C170.839 161.674 172.661 139.31 172.661 139.31L182.146 134.127C182.146 134.127 185.008 133.311 185.998 131.83C186.988 130.349 187.329 128.918 187.329 128.918C187.329 128.918 185.623 129.8 184.966 131.506Z" fill="#FF996A"/>
<path d="M142.728 163.757C142.728 163.757 137.17 162.684 127.66 162.684C118.15 162.684 108.641 164.464 108.641 164.464" stroke="#847062" stroke-width="0.833826" stroke-miterlimit="10" stroke-linecap="round" stroke-linejoin="round"/>
<path d="M132.711 73.543C132.711 73.543 134.242 76.3634 134.109 78.2937" stroke="#543E2F" stroke-width="0.833826" stroke-miterlimit="10" stroke-linecap="round" stroke-linejoin="round"/>
<path d="M130.365 71.4062C130.365 71.4062 124.158 73.428 120.738 78.3035" stroke="#543E2F" stroke-width="0.833826" stroke-miterlimit="10" stroke-linecap="round" stroke-linejoin="round"/>
<path d="M101.578 74.5469C101.578 74.5469 100.572 76.8016 100.505 77.6336C100.505 77.6336 97.1855 80.7203 96.7695 82.5091" stroke="#543E2F" stroke-width="0.833826" stroke-miterlimit="10" stroke-linecap="round" stroke-linejoin="round"/>
<path d="M89.0977 82.9336C89.3389 83.1083 92.617 85.596 95.9866 83.4994" stroke="#543E2F" stroke-width="0.833826" stroke-miterlimit="10" stroke-linecap="round" stroke-linejoin="round"/>
<path d="M105.668 73.5408C105.668 73.5408 113.372 66.4355 126.119 70.1795" stroke="#543E2F" stroke-width="0.833826" stroke-miterlimit="10" stroke-linecap="round" stroke-linejoin="round"/>
<path d="M107.215 88.2107C107.215 88.2107 110.526 89.5419 117.598 88.2107C124.67 86.8795 131.11 79.6328 131.11 79.6328" stroke="#543E2F" stroke-width="0.833826" stroke-miterlimit="10" stroke-linecap="round" stroke-linejoin="round"/>
<path d="M104.363 127.031C104.363 127.031 114.031 131.066 123.94 130.467C133.841 129.877 135.081 128.088 135.081 128.088" stroke="#847062" stroke-width="0.833826" stroke-miterlimit="10" stroke-linecap="round" stroke-linejoin="round"/>
</svg>
