<svg width="72" height="72" viewBox="0 0 72 72" fill="none" xmlns="http://www.w3.org/2000/svg">
<rect width="72" height="72" rx="8" fill="white"/>
<path d="M17 36C17 27.0433 17 22.565 19.7825 19.7825C22.565 17 27.0433 17 36 17C44.9567 17 49.435 17 52.2175 19.7825C55 22.565 55 27.0433 55 36C55 44.9567 55 49.435 52.2175 52.2175C49.435 55 44.9567 55 36 55C27.0433 55 22.565 55 19.7825 52.2175C17 49.435 17 44.9567 17 36Z" stroke="url(#paint0_linear_4156_16732)" stroke-width="1.5"/>
<path d="M28 45.25C27.5858 45.25 27.25 45.5858 27.25 46C27.25 46.4142 27.5858 46.75 28 46.75L28 45.25ZM44 46.75C44.4142 46.75 44.75 46.4142 44.75 46C44.75 45.5858 44.4142 45.25 44 45.25L44 46.75ZM41.5391 36.1543C41.8271 35.8565 41.8191 35.3817 41.5214 35.0938C41.2236 34.8058 40.7488 34.8138 40.4609 35.1115L41.5391 36.1543ZM38.6516 38.0612L39.1908 38.5826L39.1908 38.5826L38.6516 38.0612ZM33.3483 38.0612L32.8092 38.5826L32.8092 38.5826L33.3483 38.0612ZM31.5391 35.1115C31.2512 34.8138 30.7764 34.8058 30.4786 35.0938C30.1809 35.3817 30.1729 35.8565 30.4609 36.1543L31.5391 35.1115ZM36.75 26C36.75 25.5858 36.4142 25.25 36 25.25C35.5858 25.25 35.25 25.5858 35.25 26L36.75 26ZM28 46.75L44 46.75L44 45.25L28 45.25L28 46.75ZM40.4609 35.1115L38.1125 37.5398L39.1908 38.5826L41.5391 36.1543L40.4609 35.1115ZM33.8875 37.5398L31.5391 35.1115L30.4609 36.1543L32.8092 38.5826L33.8875 37.5398ZM38.1125 37.5398C37.4726 38.2015 37.0444 38.642 36.6838 38.9265C36.3394 39.1982 36.1506 39.25 36 39.25L36 40.75C36.6261 40.75 37.1381 40.4787 37.6129 40.1041C38.0714 39.7423 38.5807 39.2134 39.1908 38.5826L38.1125 37.5398ZM32.8092 38.5826C33.4193 39.2134 33.9285 39.7423 34.3871 40.1041C34.8619 40.4787 35.3739 40.75 36 40.75L36 39.25C35.8494 39.25 35.6606 39.1982 35.3162 38.9265C34.9556 38.642 34.5274 38.2015 33.8875 37.5398L32.8092 38.5826ZM36.75 40L36.75 26L35.25 26L35.25 40L36.75 40Z" fill="url(#paint1_linear_4156_16732)"/>
<defs>
<linearGradient id="paint0_linear_4156_16732" x1="17" y1="17" x2="58.7047" y2="44.3879" gradientUnits="userSpaceOnUse">
<stop stop-color="#3EC3FC"/>
<stop offset="1" stop-color="#3B5EFF"/>
</linearGradient>
<linearGradient id="paint1_linear_4156_16732" x1="28" y1="26" x2="47.6964" y2="36.3479" gradientUnits="userSpaceOnUse">
<stop stop-color="#3EC3FC"/>
<stop offset="1" stop-color="#3B5EFF"/>
</linearGradient>
</defs>
</svg>
